<?xml version="1.0" standalone="no"?>
<!DOCTYPE svg PUBLIC "-//W3C//DTD SVG 20010904//EN"
 "http://www.w3.org/TR/2001/REC-SVG-20010904/DTD/svg10.dtd">
<svg version="1.0" xmlns="http://www.w3.org/2000/svg"
 width="1280.000000pt" height="796.000000pt" viewBox="0 0 1280.000000 796.000000"
 preserveAspectRatio="xMidYMid meet">
<metadata>
Created by potrace 1.15, written by Peter Selinger 2001-2017
</metadata>
<g transform="translate(0.000000,796.000000) scale(0.100000,-0.100000)"
fill="#000000" stroke="none">
<path d="M3453 7740 c-167 -30 -303 -135 -490 -380 -140 -181 -203 -211 -327
-151 -76 36 -164 61 -220 61 -38 0 -38 -1 -22 -19 16 -18 15 -19 -31 -26 -79
-12 -178 -67 -142 -79 8 -3 23 -6 33 -8 33 -5 28 -24 -23 -90 -87 -114 -141
-251 -141 -358 0 -69 8 -93 61 -182 40 -66 124 -270 148 -359 16 -57 5 -82
-63 -149 -53 -51 -57 -67 -19 -72 25 -3 28 -7 27 -38 -1 -19 -13 -62 -27 -96
-18 -41 -28 -87 -33 -145 -7 -102 -39 -177 -110 -264 -81 -100 -115 -164 -112
-210 4 -60 29 -58 90 9 28 31 57 56 64 56 16 0 30 -52 38 -144 16 -163 61
-133 105 69 48 219 52 224 113 155 21 -24 41 -41 44 -38 3 3 -4 54 -15 112
-24 122 -26 162 -9 172 26 16 137 -141 163 -230 17 -59 73 -96 158 -105 48 -5
74 -14 100 -34 20 -15 38 -24 40 -20 3 5 8 37 12 73 3 36 9 73 11 83 11 38 54
6 54 -42 0 -72 -145 -308 -351 -572 -177 -227 -220 -301 -290 -498 -101 -286
-169 -738 -169 -1131 0 -348 -64 -713 -181 -1035 -28 -77 -64 -192 -79 -255
-124 -509 -162 -669 -180 -765 -28 -150 -119 -790 -126 -895 -6 -76 -4 -88 14
-110 l20 -25 254 0 253 0 14 55 c7 30 33 127 57 215 44 163 52 190 199 655
115 364 131 419 159 580 37 204 72 318 201 645 37 94 109 285 160 425 99 272
114 310 125 310 32 0 272 -532 314 -695 34 -134 50 -288 50 -475 0 -280 -20
-337 -184 -515 -336 -367 -512 -717 -573 -1147 -5 -31 -2 -37 16 -43 40 -12
2333 -18 2430 -6 249 30 437 119 597 280 210 212 322 511 322 861 1 150 -11
250 -46 394 -21 85 -21 96 -7 90 113 -47 125 -49 256 -48 160 0 219 17 475
139 96 45 238 108 315 140 231 94 391 178 555 288 170 114 487 317 495 317 3
0 5 -39 6 -87 0 -49 5 -115 9 -148 5 -33 14 -134 19 -225 13 -210 28 -374 47
-523 l14 -118 -107 -114 c-98 -103 -114 -125 -171 -239 -34 -69 -79 -147 -99
-173 -21 -27 -38 -60 -39 -74 -1 -15 -23 -52 -48 -83 -26 -32 -43 -62 -40 -68
4 -6 7 -23 8 -37 1 -21 6 -27 32 -29 42 -4 68 20 168 151 87 116 111 142 160
173 l28 18 -32 -57 c-36 -65 -35 -101 5 -119 43 -20 71 -2 129 80 30 42 65 88
79 100 31 29 29 34 57 -138 12 -69 52 -244 90 -390 38 -146 75 -289 81 -317
l11 -53 761 1 c836 1 1522 10 1532 21 10 10 -22 196 -51 298 -93 323 -249 587
-523 885 -162 176 -186 243 -186 520 1 227 29 423 81 564 22 61 29 69 77 95
164 92 257 200 257 299 0 41 -16 82 -65 162 l-18 30 47 100 c25 55 50 107 54
115 12 23 89 57 157 70 33 6 80 20 105 31 25 11 65 25 89 32 43 12 44 14 73
92 35 92 46 180 47 355 1 143 -19 245 -103 519 -14 47 -26 98 -26 115 -1 31
-9 67 -49 218 -21 82 -28 98 -66 154 -29 43 -46 101 -121 404 -38 158 -94 439
-110 560 -19 145 -21 157 -33 225 -6 33 -13 85 -16 115 -6 53 -16 123 -49 350
-19 128 -45 272 -67 370 -6 25 -12 52 -14 60 -2 8 -8 38 -15 65 -25 112 -104
324 -156 416 -30 52 -54 100 -54 107 0 18 -59 70 -154 132 -151 101 -242 124
-426 108 -164 -13 -306 -50 -439 -112 -64 -30 -148 -68 -188 -84 -149 -63
-279 -178 -303 -269 -7 -26 -41 -109 -76 -183 -34 -74 -68 -163 -75 -198 -17
-91 -6 -265 25 -382 40 -148 36 -191 -29 -339 -30 -68 -55 -134 -55 -146 0
-26 23 -48 70 -68 57 -23 85 -65 110 -166 13 -54 36 -114 57 -148 31 -52 63
-144 63 -181 0 -31 33 -81 61 -92 20 -9 62 -11 125 -8 83 5 94 3 90 -11 -2 -9
-8 -38 -11 -66 -4 -27 -9 -59 -11 -70 -2 -11 -8 -52 -13 -90 -5 -39 -14 -90
-20 -115 -5 -25 -12 -75 -16 -112 -3 -37 -8 -77 -10 -90 -7 -34 -24 -174 -31
-251 -5 -61 -10 -74 -42 -110 -59 -65 -250 -220 -552 -447 -316 -238 -394
-307 -445 -390 -113 -185 -122 -362 -26 -502 l40 -57 -47 -42 c-70 -61 -118
-92 -267 -172 -167 -89 -255 -152 -515 -363 -247 -201 -510 -399 -566 -427
-60 -29 -94 -18 -215 68 -129 93 -195 126 -329 166 -120 35 -95 14 -311 269
-72 85 -140 173 -152 195 -19 37 -49 179 -63 301 -6 46 -3 57 34 125 55 100
75 181 76 304 0 75 -6 118 -22 170 -48 157 -133 254 -930 1056 l-335 337 8 78
c12 130 100 444 145 514 7 12 54 17 234 26 191 9 229 14 257 30 42 25 58 67
58 156 1 75 7 98 26 98 16 0 30 36 26 68 -1 13 3 30 9 38 9 9 10 31 6 64 -4
28 -4 71 0 98 6 45 10 49 73 92 48 33 67 52 69 70 2 18 -22 64 -85 160 l-88
135 -1 225 c-2 301 -16 350 -158 550 -37 52 -79 119 -92 147 -50 105 -168 175
-397 233 -83 22 -174 47 -202 56 -58 19 -414 29 -502 14z m-625 -1097 c6 -16
23 -75 37 -132 34 -136 66 -205 160 -340 42 -62 84 -133 91 -158 20 -65 19
-207 -2 -227 -18 -18 -66 -21 -95 -5 -16 8 -18 13 -8 25 6 8 22 14 35 14 12 0
26 4 29 10 9 14 -82 102 -140 135 -79 45 -88 55 -70 75 14 15 13 21 -9 61 -32
59 -100 405 -93 469 7 60 23 100 41 100 7 0 18 -12 24 -27z m300 -958 c-2 -15
-12 -34 -23 -41 -18 -12 -24 -11 -43 2 -27 19 -17 46 26 68 32 17 45 8 40 -29z"/>
</g>
</svg>
