<?xml version="1.0" standalone="no"?>
<!DOCTYPE svg PUBLIC "-//W3C//DTD SVG 20010904//EN"
 "http://www.w3.org/TR/2001/REC-SVG-20010904/DTD/svg10.dtd">
<svg version="1.0" xmlns="http://www.w3.org/2000/svg"
 width="1280.000000pt" height="1024.000000pt" viewBox="0 0 1280.000000 1024.000000"
 preserveAspectRatio="xMidYMid meet">
<metadata>
Created by potrace 1.15, written by Peter Selinger 2001-2017
</metadata>
<g transform="translate(0.000000,1024.000000) scale(0.100000,-0.100000)"
fill="#000000" stroke="none">
<path d="M7785 10234 c-208 -20 -314 -51 -467 -137 -60 -34 -161 -104 -226
-155 -64 -52 -137 -108 -162 -125 -52 -35 -247 -197 -332 -275 -32 -30 -88
-100 -125 -155 -74 -111 -226 -277 -253 -277 -56 0 -146 -196 -170 -370 -8
-55 -7 -95 1 -147 14 -85 8 -131 -20 -170 -41 -55 -53 -196 -22 -247 10 -17
22 -47 26 -66 5 -25 25 -52 73 -97 61 -58 64 -63 39 -63 -59 0 -96 30 -135
109 -31 63 -38 87 -41 152 -3 79 16 172 45 213 18 26 18 36 0 36 -8 0 -27 -26
-43 -57 -26 -54 -28 -66 -28 -178 0 -108 3 -125 26 -175 14 -30 46 -77 71
-105 25 -27 51 -67 57 -88 7 -21 24 -45 37 -54 13 -8 24 -21 24 -27 0 -7 15
-12 36 -12 27 0 42 -7 56 -24 11 -13 26 -25 34 -26 28 -4 63 -33 66 -55 4 -29
28 -37 28 -10 0 18 6 21 38 21 20 0 53 3 73 6 35 6 37 5 43 -29 5 -29 19 -44
74 -84 112 -82 175 -119 180 -105 6 18 32 42 45 42 7 0 5 -6 -5 -13 -11 -9
-15 -24 -13 -47 2 -19 4 -38 4 -42 1 -5 10 -8 21 -8 55 0 -5 -43 -77 -55 -53
-8 -73 -29 -50 -52 15 -15 25 -15 98 -3 61 9 83 10 88 1 6 -8 16 -8 42 3 19 8
41 11 48 7 17 -11 58 -244 43 -249 -8 -2 -8 -8 0 -22 9 -14 9 -24 0 -42 -10
-18 -10 -38 2 -100 21 -109 25 -114 99 -127 91 -16 106 -14 144 15 19 14 35
24 36 23 2 -2 11 -31 22 -63 11 -33 42 -98 69 -145 85 -149 105 -208 121 -366
9 -77 20 -176 25 -221 9 -69 8 -86 -6 -114 -15 -30 -16 -56 -8 -244 21 -499 7
-938 -42 -1271 -38 -258 -125 -511 -311 -900 -85 -178 -192 -365 -209 -365 -3
0 -18 9 -33 19 -16 12 -36 18 -48 15 -13 -4 -22 0 -26 10 -5 12 -21 16 -65 16
-52 0 -61 -3 -88 -31 -48 -51 -120 -82 -185 -80 l-57 2 -53 -63 c-29 -35 -54
-65 -56 -67 -1 -2 -91 -19 -200 -37 -132 -22 -261 -37 -386 -44 -146 -8 -201
-15 -250 -31 -127 -44 -121 -44 -194 22 -36 33 -92 76 -125 97 -207 130 -282
186 -378 278 -152 147 -183 160 -421 174 -145 8 -281 30 -321 52 -12 5 -18 20
-18 42 0 22 -12 51 -35 85 -19 28 -35 55 -35 60 0 19 42 107 66 138 l25 33 97
-49 c53 -27 137 -65 186 -85 51 -20 123 -60 170 -94 101 -74 116 -82 194 -103
55 -15 64 -15 69 -2 8 21 -64 92 -88 86 -11 -3 -28 3 -41 16 -97 89 -223 154
-351 181 -71 14 -175 61 -201 89 -16 17 -17 26 -9 59 10 39 2 72 -17 72 -5 0
-14 -19 -20 -42 -16 -63 -35 -108 -68 -165 -16 -27 -35 -66 -43 -86 -7 -20
-16 -37 -20 -37 -3 0 -23 21 -43 48 -119 152 -366 384 -510 479 -69 45 -228
123 -253 123 -17 0 -16 43 1 84 16 37 79 86 111 86 12 0 45 -15 75 -34 30 -19
76 -46 101 -60 76 -41 268 -193 280 -222 4 -10 28 -24 167 -96 74 -38 102 -48
142 -48 82 0 59 30 -56 74 -83 31 -148 75 -311 206 -65 53 -137 108 -161 123
-45 29 -61 52 -46 67 5 5 54 16 109 24 216 33 342 112 381 241 20 67 9 102
-49 162 -59 61 -59 75 8 146 52 55 53 69 12 156 l-21 44 25 19 c97 76 100 87
34 143 -36 32 -55 55 -55 70 0 13 22 45 56 80 72 75 98 126 89 173 -5 29 -30
58 -120 147 -94 91 -124 127 -170 208 -45 79 -54 101 -45 116 5 11 10 31 10
44 0 15 14 39 37 61 35 34 38 40 41 107 l4 71 -45 41 c-46 42 -46 42 -62 147
-29 192 -77 349 -127 419 -21 30 -28 46 -20 49 41 13 77 164 62 256 -16 99
-92 223 -129 211 -18 -5 -69 42 -112 105 -64 95 -109 114 -294 126 -55 3 -125
13 -155 21 -30 8 -113 18 -183 23 l-128 9 -107 -34 c-93 -30 -302 -128 -532
-250 -45 -24 -102 -43 -185 -60 -189 -39 -301 -84 -429 -171 -123 -84 -184
-140 -285 -259 -205 -242 -262 -391 -282 -730 -12 -199 -12 -200 15 -340 15
-77 29 -153 32 -170 19 -110 70 -318 87 -359 12 -26 36 -60 53 -75 17 -14 46
-55 64 -90 17 -35 59 -99 92 -143 55 -72 236 -257 317 -324 18 -15 39 -39 45
-54 6 -14 23 -45 38 -70 27 -47 54 -152 43 -170 -4 -6 -36 -29 -71 -51 -78
-50 -111 -95 -175 -242 -53 -121 -70 -146 -179 -263 -109 -118 -169 -233 -205
-396 -14 -65 -20 -78 -37 -78 -10 0 -51 -13 -89 -30 -92 -39 -248 -160 -374
-292 -101 -104 -101 -104 -195 -137 -52 -18 -128 -53 -167 -78 -64 -39 -73
-48 -73 -74 0 -16 2 -29 5 -29 2 0 38 20 79 45 41 25 140 70 221 101 174 65
225 89 225 108 0 19 -20 25 -48 15 l-23 -9 20 29 c22 31 154 144 237 204 63
45 178 100 182 87 4 -12 -23 -163 -49 -268 -12 -50 -48 -140 -89 -224 -75
-153 -97 -225 -86 -282 12 -63 36 -43 60 49 12 44 47 132 78 195 74 152 81
176 123 397 75 388 114 483 264 646 116 125 130 145 180 269 45 112 81 172
118 194 16 9 40 25 55 35 47 32 44 0 -4 -45 -64 -62 -88 -131 -100 -288 -12
-151 -3 -206 67 -420 46 -142 78 -212 162 -358 112 -193 174 -377 252 -745 77
-367 91 -404 179 -508 63 -75 148 -147 235 -200 37 -23 107 -69 155 -103 48
-33 103 -69 122 -79 19 -11 58 -33 85 -51 78 -48 166 -100 211 -122 62 -32
238 -166 267 -204 25 -33 26 -37 16 -97 -12 -76 -1 -99 64 -132 43 -23 160
-37 193 -25 27 10 -1 31 -61 45 -27 7 -70 21 -94 32 l-44 19 7 69 c3 39 2 81
-4 95 -16 42 -86 105 -230 205 -224 157 -273 187 -451 281 -204 107 -307 179
-402 280 -103 110 -114 137 -203 532 -76 340 -127 480 -284 783 -59 114 -101
212 -128 296 -61 190 -61 184 -13 270 23 41 52 87 64 102 21 27 22 37 22 230
0 155 -4 221 -18 282 -17 75 -17 81 0 92 9 7 23 14 30 14 7 1 18 2 23 3 6 0
20 20 30 43 10 24 23 43 28 43 12 0 132 120 132 133 0 5 -9 2 -20 -8 -29 -26
-25 -14 15 45 19 29 35 57 35 63 0 6 17 38 39 71 33 51 40 72 45 133 4 44 2
74 -4 78 -11 7 -14 48 -3 58 3 4 19 -14 34 -41 44 -77 176 -197 255 -233 38
-17 76 -34 84 -39 74 -43 101 -52 129 -40 16 6 43 26 60 44 28 29 32 39 29 76
-4 54 -23 62 -41 17 -15 -35 -66 -67 -106 -67 -84 0 -368 228 -405 325 -31 83
-55 183 -62 258 -6 70 -5 80 13 100 12 12 30 43 40 68 29 65 71 84 181 81 106
-3 145 -22 233 -113 85 -88 104 -90 212 -19 75 50 104 89 87 121 -4 8 -10 30
-14 50 -4 20 -20 61 -36 90 -16 30 -30 63 -30 74 0 12 25 50 55 85 70 81 125
192 124 246 -1 21 4 58 10 80 15 57 7 77 -30 69 -18 -4 -29 -2 -29 4 0 6 -5
11 -10 11 -12 0 -60 -104 -60 -130 0 -12 -18 -24 -58 -39 -59 -21 -202 -114
-202 -131 0 -22 22 -17 72 16 65 44 108 67 115 61 2 -3 -11 -15 -29 -28 -18
-13 -50 -40 -70 -60 -47 -46 -200 -121 -305 -149 -46 -13 -83 -27 -83 -33 0
-18 103 3 190 39 117 49 120 49 120 30 0 -19 -122 -82 -177 -92 -18 -3 -30
-10 -27 -15 11 -19 72 -8 141 25 64 31 70 32 65 14 -4 -17 -2 -19 19 -13 41
13 99 45 99 55 0 6 -9 10 -20 10 -29 0 -25 12 13 37 17 12 66 49 107 83 83 66
101 74 75 33 -48 -76 -96 -129 -156 -174 -76 -56 -125 -79 -189 -88 -39 -5
-45 -9 -48 -33 -8 -68 90 -52 181 28 41 38 67 44 67 16 0 -24 -67 -77 -135
-108 -88 -38 -68 -58 29 -29 27 8 55 15 63 15 23 0 -6 -36 -44 -54 -58 -28
-85 -21 -142 34 -53 51 -90 65 -87 33 0 -11 -5 -17 -14 -14 -8 2 -46 6 -83 9
-59 4 -70 8 -77 27 -11 28 -29 35 -93 35 -59 0 -124 -27 -214 -88 -121 -82
-111 -106 10 -27 87 57 153 86 191 84 11 0 0 -6 -26 -13 -60 -16 -117 -54
-197 -130 -73 -70 -121 -136 -121 -165 0 -34 13 -24 38 29 41 88 190 218 277
241 22 6 50 16 62 21 11 6 26 7 33 3 15 -10 -63 -45 -99 -45 -14 0 -44 -12
-66 -26 -84 -55 -205 -189 -205 -225 0 -31 15 -22 29 18 19 51 118 148 182
178 29 13 55 23 57 21 1 -2 -8 -20 -22 -41 -14 -20 -28 -53 -32 -73 -12 -62 4
-212 31 -296 22 -70 23 -81 10 -88 -8 -5 -15 -19 -15 -32 0 -22 -47 -97 -69
-111 -14 -8 -14 -52 -1 -60 10 -6 35 16 62 55 15 23 17 23 17 5 1 -11 -22 -48
-51 -83 -38 -47 -48 -66 -40 -74 9 -9 19 -5 42 17 16 16 30 24 30 18 0 -18
-111 -123 -131 -123 -10 0 -31 -20 -50 -47 -18 -27 -50 -69 -71 -94 -21 -26
-36 -53 -33 -61 8 -19 -42 -65 -56 -51 -7 7 9 59 51 166 55 141 64 158 88 163
56 12 62 16 62 36 0 19 -4 20 -42 14 -25 -4 -49 -15 -58 -27 -9 -11 -36 -70
-60 -132 -24 -61 -46 -105 -48 -98 -7 21 18 120 45 181 49 108 53 120 43 120
-5 0 -32 -46 -59 -102 -53 -109 -62 -106 -36 12 17 78 17 80 6 80 -11 0 -41
-118 -41 -160 0 -19 -4 -29 -10 -25 -10 6 -7 91 5 168 9 57 -13 15 -25 -48
-13 -68 -8 -123 15 -159 16 -25 37 -124 30 -136 -7 -11 -53 6 -79 28 -10 9
-37 44 -59 77 -22 33 -79 101 -127 151 -75 78 -90 99 -105 150 -30 103 -37
189 -26 296 16 142 37 215 96 336 29 59 51 109 48 112 -20 21 -134 -212 -158
-323 -13 -59 -16 -113 -14 -227 2 -83 1 -150 -3 -150 -3 0 -16 19 -27 43 -18
38 -21 62 -21 184 0 197 34 353 110 506 38 75 18 69 -30 -10 -67 -111 -110
-289 -110 -461 -1 -70 -2 -75 -15 -57 -9 10 -25 50 -37 87 -20 63 -21 76 -11
166 13 117 57 254 119 370 51 94 54 130 6 60 -80 -116 -147 -306 -155 -438
l-2 -45 -24 70 c-30 92 -42 228 -45 523 -3 215 -5 244 -21 262 -20 22 -16 63
14 145 10 28 24 69 30 93 7 24 18 42 26 42 8 0 23 19 33 43 25 55 115 159 153
175 26 11 30 17 25 38 -5 20 3 35 46 80 72 76 201 172 268 200 123 50 307 98
324 85 19 -14 214 14 236 34 10 9 63 33 117 52 77 27 123 36 217 43 139 11
204 3 297 -35 101 -42 96 -41 76 -18 -25 28 -123 71 -194 84 -34 7 -102 9
-165 5 -93 -5 -106 -4 -101 10 7 18 -21 13 -112 -21 -33 -13 -69 -26 -80 -30
-14 -6 -17 -5 -10 2 22 23 336 173 434 208 l104 37 108 -11 c133 -14 219 -31
219 -43 0 -8 -17 -6 -90 13 -115 29 -420 -13 -433 -60 -8 -33 5 -41 53 -30 70
16 193 2 279 -32 41 -16 76 -28 78 -25 9 8 -82 54 -138 71 -32 9 -84 17 -118
18 -33 1 -61 5 -61 8 0 12 130 39 190 39 47 0 81 -8 153 -37 119 -49 197 -123
252 -239 21 -44 40 -73 45 -68 9 9 5 33 -22 121 -6 23 -9 45 -5 49 23 23 76
-90 88 -186 9 -74 -1 -94 -52 -105 -39 -9 -44 -7 -44 13 0 10 -8 17 -20 17
-13 0 -20 -6 -19 -17 1 -10 -1 -18 -5 -18 -13 0 -51 68 -46 82 4 11 -4 14 -42
14 -26 0 -63 8 -81 18 -18 9 -45 16 -60 14 -24 -4 -25 -5 -7 -12 51 -19 72
-39 102 -92 33 -61 69 -162 60 -171 -4 -3 -18 -3 -32 1 -16 4 -25 13 -25 27 0
23 -33 90 -65 134 -13 17 -26 40 -30 53 -8 27 -94 94 -155 121 -68 29 -126 35
-200 18 -54 -13 -68 -13 -80 -2 -23 20 -89 45 -120 45 -22 0 -49 -22 -126 -98
-134 -133 -221 -173 -264 -120 l-17 22 -7 -22 -7 -22 -29 20 c-42 30 -55 24
-25 -11 14 -17 24 -37 22 -43 -6 -20 -111 -87 -129 -82 -25 6 -213 -50 -268
-80 -108 -59 -108 -78 0 -28 113 53 183 74 246 74 54 0 62 3 131 55 56 43 84
57 120 62 85 11 161 58 279 173 l72 70 46 -16 c25 -9 46 -20 46 -24 0 -5 -17
-19 -37 -31 -55 -34 -25 -34 75 0 103 36 132 38 210 14 l57 -17 -97 -7 c-119
-8 -217 -37 -328 -96 -68 -36 -81 -41 -62 -21 40 44 23 40 -40 -9 -92 -72
-150 -163 -103 -163 8 0 15 8 15 18 0 24 28 62 45 62 8 0 45 21 82 47 221 151
456 177 614 67 38 -26 109 -125 109 -151 0 -23 -31 -1 -45 33 -30 72 -178 111
-360 94 -86 -8 -111 -15 -181 -49 -78 -39 -216 -151 -203 -165 4 -4 35 18 70
49 111 97 233 144 378 145 l44 0 -44 -30 c-24 -16 -51 -30 -59 -30 -23 0 -113
-45 -128 -63 -24 -28 -3 -39 29 -16 97 69 231 62 339 -17 63 -47 70 -50 70
-34 0 39 -136 130 -194 130 -14 0 -28 5 -32 11 -5 8 11 9 57 4 114 -13 174
-49 220 -131 30 -53 49 -62 49 -23 0 33 71 21 88 -14 9 -22 10 -22 22 6 14 29
25 34 34 15 3 -10 8 -9 18 2 21 24 79 42 95 28 10 -8 23 -4 52 17 31 21 46 25
70 20 25 -5 31 -3 31 10 0 24 7 18 86 -65 119 -127 186 -260 204 -404 11 -91
43 -208 66 -241 22 -31 17 -94 -13 -153 -26 -51 -26 -54 -15 -130 22 -140 148
-352 247 -414 44 -28 55 -52 55 -127 0 -31 -8 -45 -47 -83 -27 -26 -60 -51
-75 -57 -26 -10 -27 -11 -13 -38 8 -15 15 -38 15 -51 0 -23 38 -69 74 -89 25
-14 14 -43 -17 -43 -13 0 -32 -9 -43 -21 -20 -23 -101 -67 -146 -80 -22 -6
-30 -4 -38 12 -11 19 -11 19 -49 0 -20 -11 -42 -25 -48 -33 -15 -19 -44 -109
-38 -118 6 -9 75 7 90 21 5 5 17 9 27 9 10 0 18 4 18 10 0 5 19 18 41 29 31
15 46 18 60 10 10 -5 30 -7 45 -3 31 8 44 -7 44 -52 0 -38 -21 -58 -54 -50
-15 4 -28 0 -36 -9 -19 -23 8 -102 44 -128 33 -23 66 -89 66 -132 0 -16 -14
-51 -30 -77 -23 -37 -44 -55 -92 -79 -97 -49 -133 -59 -262 -69 -130 -11 -238
-26 -299 -41 -71 -19 -122 -143 -131 -324 -3 -60 -14 -168 -25 -240 -11 -71
-23 -194 -27 -272 l-7 -142 24 -9 c26 -10 94 -10 104 -1 3 4 -10 25 -29 48
l-34 41 15 52 c8 29 21 80 28 113 8 33 19 76 25 95 5 19 10 84 10 143 0 139 4
147 78 147 51 0 67 -5 129 -44 114 -70 208 -149 368 -310 138 -139 154 -159
196 -244 l46 -94 -45 -28 c-25 -16 -108 -45 -196 -69 -83 -23 -162 -48 -176
-55 -25 -14 -59 -55 -183 -227 -111 -153 -108 -151 -170 -159 -82 -12 -122
-43 -141 -110 -37 -135 -31 -155 81 -261 161 -150 404 -240 532 -196 38 14 54
14 120 2 42 -7 117 -16 167 -20 117 -9 121 -12 96 -61 -28 -55 -55 -149 -112
-389 l-51 -210 -89 -120 c-49 -66 -111 -157 -137 -203 -26 -46 -63 -109 -81
-140 -18 -31 -64 -91 -101 -132 l-69 -75 -163 2 c-90 1 -197 6 -238 12 -78 10
-101 7 -101 -14 0 -26 75 -38 275 -44 l200 -6 1 -63 c1 -71 21 -106 48 -83 10
9 12 20 6 41 -14 50 4 99 59 154 57 59 99 119 183 265 33 57 98 155 144 217
47 63 97 140 113 171 36 72 87 260 101 373 13 103 46 218 72 246 13 14 27 20
43 16 14 -2 25 -8 25 -11 0 -15 158 -120 246 -164 81 -41 103 -47 215 -61 78
-10 157 -27 212 -46 106 -38 199 -47 287 -28 36 8 79 11 95 7 17 -4 57 -7 90
-8 l60 -1 60 -75 c56 -69 65 -89 128 -267 37 -106 77 -227 88 -268 50 -180
130 -298 222 -325 45 -13 59 -13 156 4 59 11 161 33 227 50 67 17 244 55 395
85 264 53 331 71 467 122 35 13 161 48 280 78 120 30 282 76 362 101 80 25
191 57 248 70 171 41 268 72 370 118 53 25 108 48 122 52 68 20 295 140 328
174 21 20 85 108 144 196 59 88 147 215 195 282 49 67 110 161 137 210 79 141
238 459 286 571 24 57 48 106 52 108 5 3 61 -26 126 -64 64 -38 182 -95 262
-127 157 -62 276 -136 309 -189 11 -17 33 -68 49 -113 46 -127 166 -295 241
-341 16 -10 79 -65 140 -123 l111 -106 0 -52 c0 -28 4 -51 9 -51 19 0 32 30
30 67 -2 21 1 44 4 50 8 13 -61 109 -118 163 -49 46 -147 168 -189 233 -18 28
-63 87 -98 130 -36 43 -78 103 -94 134 -46 87 -147 174 -284 243 -63 32 -160
77 -215 100 -201 85 -426 243 -638 450 -185 179 -216 232 -444 735 -136 302
-217 447 -264 474 -34 19 -34 20 -14 171 21 159 35 403 36 610 0 96 5 213 10
260 6 47 13 128 16 181 5 84 3 100 -16 137 -14 28 -20 53 -16 79 2 20 0 40 -6
44 -7 4 -4 19 8 45 24 51 78 78 152 75 59 -2 157 -27 166 -42 4 -5 26 -9 51
-9 33 0 67 12 132 44 77 39 93 52 138 112 92 122 161 230 198 308 32 67 50
126 112 370 37 147 47 419 19 562 -8 43 -15 84 -15 91 0 12 175 216 191 221
22 9 5 -18 -42 -63 -28 -28 -69 -72 -92 -99 -37 -44 -39 -48 -17 -41 14 4 36
15 50 25 32 22 95 23 142 4 86 -38 229 -286 250 -437 14 -99 3 -360 -20 -487
-22 -117 -69 -267 -111 -351 -74 -148 -250 -352 -405 -469 l-59 -45 -137 -3
-137 -3 -188 125 c-103 69 -193 126 -201 126 -22 0 -25 -17 -7 -36 66 -66 230
-183 309 -221 l91 -43 141 0 c186 0 222 13 339 123 218 207 371 505 422 822
37 231 35 463 -4 580 -26 77 -90 208 -108 224 -28 22 -20 31 27 31 28 0 59 8
81 21 34 21 45 21 213 16 318 -9 678 -62 902 -131 47 -15 143 -40 213 -56 159
-36 306 -94 552 -216 180 -89 248 -132 435 -276 100 -78 138 -58 53 26 -125
124 -399 296 -615 386 -43 17 -88 40 -101 50 -24 19 -402 131 -487 145 -25 4
-125 27 -222 51 -203 50 -480 99 -618 108 -61 4 -148 1 -240 -9 -204 -21 -291
-20 -340 5 -22 11 -40 24 -40 29 0 4 22 41 49 82 83 124 113 235 131 484 23
306 18 345 -74 539 -48 101 -60 118 -139 193 -112 108 -162 133 -262 133 -90
0 -110 9 -119 51 -4 22 -42 67 -136 161 -71 71 -130 132 -130 134 0 3 23 -11
52 -30 50 -34 67 -39 53 -16 -14 22 -157 122 -209 146 -28 13 -88 29 -131 35
-64 9 -92 19 -150 53 -38 24 -88 53 -111 64 -56 28 -264 90 -399 117 -106 22
-322 37 -410 29z m187 -135 c192 -102 218 -118 218 -134 0 -8 -2 -15 -5 -15
-3 0 -43 22 -89 48 -52 30 -117 57 -170 71 -47 13 -86 26 -86 30 0 4 5 12 11
18 8 8 6 15 -10 25 -22 13 -28 28 -12 28 5 0 69 -32 143 -71z m80 40 c29 -6
85 -26 123 -44 39 -18 93 -38 120 -45 28 -7 59 -15 69 -18 12 -3 17 -1 13 5
-4 6 -54 30 -112 53 -58 23 -104 45 -101 47 9 9 131 -37 187 -71 31 -19 67
-37 80 -41 22 -7 23 -7 9 10 -13 16 -13 18 0 13 8 -2 21 -16 30 -31 8 -14 38
-43 65 -65 79 -61 155 -158 138 -175 -11 -11 -98 5 -110 21 -7 9 -13 31 -13
49 0 27 -8 38 -52 71 -67 50 -82 58 -182 92 -44 16 -101 38 -126 49 -25 11
-62 21 -83 21 -33 0 -157 52 -157 65 0 8 47 6 102 -6z m-234 -55 c178 -72 272
-115 272 -125 0 -4 39 -48 88 -97 100 -101 124 -138 102 -152 -11 -7 -31 9
-77 59 -151 166 -335 270 -603 342 -41 11 -43 13 -20 20 59 17 102 9 238 -47z
m-131 -33 c165 -51 274 -101 321 -148 21 -21 64 -60 96 -87 62 -53 112 -119
101 -135 -12 -20 -42 -11 -60 16 -54 81 -211 203 -263 203 -38 0 -33 -19 10
-41 95 -48 218 -162 218 -201 0 -16 -63 -68 -82 -68 -5 0 -41 27 -81 61 -39
34 -94 74 -122 90 -65 38 -175 73 -188 60 -7 -7 0 -14 19 -22 122 -48 216
-104 269 -160 l57 -60 -21 -23 c-11 -12 -21 -25 -21 -29 0 -11 90 37 175 92
89 58 204 105 299 122 80 13 241 8 258 -9 9 -9 2 -12 -33 -12 -48 0 -136 -20
-196 -45 -58 -24 -34 -26 52 -3 80 20 197 28 245 15 16 -4 31 -19 39 -39 8
-18 17 -37 19 -42 3 -5 -23 6 -56 25 -59 32 -87 35 -63 6 9 -12 -6 -15 -93
-20 -115 -6 -207 -27 -276 -62 -64 -32 -157 -135 -122 -135 5 0 23 17 40 39
54 67 161 118 185 88 7 -8 39 -21 72 -27 69 -13 195 -68 192 -83 -1 -5 18 -16
42 -25 l45 -15 -24 -19 c-12 -10 -21 -20 -19 -21 2 -1 15 -12 29 -23 14 -12
40 -25 59 -29 32 -7 34 -6 28 15 -5 21 -3 22 39 17 40 -4 44 -3 39 14 -8 24
21 25 116 5 91 -20 144 -49 175 -96 27 -41 27 -63 0 -41 -21 17 -56 4 -56 -21
0 -12 -5 -18 -12 -15 -201 85 -267 101 -393 95 -73 -4 -122 -13 -184 -33 -85
-29 -232 -110 -239 -132 -6 -21 17 -15 64 18 96 66 235 119 312 119 16 0 53
-10 82 -23 l52 -23 -88 4 c-163 7 -317 -48 -434 -156 -36 -33 -62 -63 -58 -67
4 -4 35 16 69 44 34 28 80 62 103 76 60 35 191 75 246 75 42 0 48 -2 43 -19
-4 -15 -18 -20 -71 -25 -69 -7 -148 -34 -106 -35 11 -1 46 4 78 10 99 18 286
-31 286 -76 0 -15 178 -113 223 -122 50 -10 24 13 -78 68 -99 53 -112 63 -95
74 20 12 9 21 -80 65 -49 25 -90 48 -90 52 0 8 84 -16 145 -42 25 -11 67 -40
94 -65 54 -50 61 -53 61 -26 0 30 -44 75 -102 106 -29 16 -66 44 -83 63 l-30
35 34 -6 c47 -10 210 -76 243 -98 14 -11 33 -19 41 -19 8 0 26 -19 39 -42 39
-67 42 -87 8 -45 -30 35 -50 47 -50 28 0 -4 22 -41 49 -82 62 -95 101 -172
101 -201 0 -14 -18 14 -45 69 -40 81 -81 133 -106 133 -5 0 14 -35 41 -77 28
-43 50 -86 50 -96 0 -10 5 -27 11 -38 5 -11 9 -36 7 -56 l-3 -37 -29 55 c-35
63 -112 149 -134 149 -11 0 -3 -14 23 -41 22 -23 32 -39 23 -36 -26 9 -23 -16
7 -51 34 -41 75 -125 75 -155 0 -13 6 -30 14 -36 14 -11 10 -61 -4 -61 -33 0
-153 200 -144 237 5 17 -6 27 -60 57 -36 20 -68 41 -71 45 -21 35 -338 90
-372 66 -21 -16 -10 -21 65 -29 116 -13 242 -63 242 -96 0 -4 -14 -10 -31 -14
-43 -8 -32 -30 17 -34 21 -1 69 -9 107 -18 51 -12 73 -23 92 -46 27 -32 33
-54 13 -45 -200 88 -304 98 -382 36 -40 -31 -31 -44 12 -17 30 18 50 23 103
22 83 -2 132 -23 53 -24 -33 0 -67 -8 -100 -25 -67 -34 -187 -153 -256 -255
-60 -89 -192 -240 -210 -240 -5 0 15 28 45 63 46 54 93 117 122 166 19 33 -17
1 -57 -50 -23 -31 -73 -88 -109 -127 -51 -55 -73 -72 -94 -72 -26 0 -25 2 33
64 57 61 185 233 212 285 26 51 -12 11 -95 -99 -133 -176 -251 -290 -301 -290
-37 0 -29 15 29 51 67 43 157 128 216 204 55 71 141 213 141 232 0 29 -20 9
-74 -76 -122 -193 -154 -224 -255 -256 l-24 -7 24 29 c13 17 49 60 80 97 52
62 119 177 119 205 0 25 -17 8 -44 -45 -42 -79 -83 -134 -103 -134 -9 0 -51
-20 -94 -45 -43 -25 -83 -45 -90 -45 -6 0 29 29 78 64 56 40 102 82 126 117
42 60 77 123 77 139 0 21 -20 9 -36 -22 -39 -75 -90 -130 -157 -169 -37 -22
-75 -51 -84 -65 -9 -14 -30 -32 -47 -41 -17 -8 -42 -26 -56 -38 -72 -66 -295
-74 -319 -12 -12 30 0 40 32 28 30 -12 87 -4 87 11 0 21 63 70 137 105 l78 38
-40 3 c-82 7 -295 -36 -295 -59 0 -11 18 -11 83 0 26 4 47 5 47 1 0 -13 -78
-30 -141 -30 -57 0 -65 3 -85 28 l-22 27 5 -28 c5 -23 3 -26 -13 -21 -51 19
-72 64 -30 64 32 0 39 12 21 36 -8 11 -14 14 -15 7 0 -18 -47 -16 -53 1 -3 8
0 19 7 25 12 10 296 64 303 57 2 -2 -23 -13 -56 -25 -32 -12 -64 -28 -71 -36
-22 -27 16 -29 108 -6 167 42 222 61 222 78 0 12 -8 14 -32 11 -17 -3 -42 0
-55 7 l-23 12 31 13 c36 16 89 66 89 86 0 19 -24 18 -41 -2 -24 -29 -92 -56
-153 -61 -34 -3 -74 -12 -89 -20 -16 -8 -60 -17 -98 -20 l-70 -6 6 39 5 39
-12 -35 c-11 -29 -19 -36 -46 -38 -38 -4 -38 1 -1 86 15 35 23 43 41 41 33 -4
150 12 168 22 19 11 10 12 -81 9 -37 -1 -69 3 -73 8 -3 5 -1 23 3 40 10 35 4
47 -16 31 -10 -9 -17 -8 -28 1 -13 10 -19 10 -33 -3 -15 -13 -22 -14 -57 -1
-22 7 -42 14 -44 14 -2 0 -1 7 3 15 8 21 -25 35 -86 35 -50 1 -52 2 -33 16 16
13 37 15 119 9 55 -3 112 -13 127 -21 42 -21 48 -18 46 23 -3 36 -27 61 -27
28 0 -11 -5 -15 -15 -11 -35 13 -152 45 -188 51 -51 8 -47 36 6 49 74 19 167
-7 281 -78 26 -16 49 -26 52 -23 3 3 -12 25 -34 49 -22 24 -41 52 -43 62 -3
14 -14 19 -39 21 -19 1 -66 9 -105 19 -48 11 -90 14 -135 10 -54 -5 -68 -3
-80 11 -12 14 -12 18 1 26 57 37 177 39 259 4 72 -30 78 -31 54 -4 -37 40 -89
59 -166 59 -126 0 -153 19 -66 45 66 19 107 19 179 -1 74 -21 114 -59 100 -97
-13 -34 3 -44 17 -12 7 14 18 25 26 25 9 0 13 10 12 33 -1 26 3 32 19 33 36 2
38 4 22 22 -15 16 -15 20 3 50 18 29 23 31 41 22 28 -15 35 -6 20 26 -15 33
-8 40 24 26 32 -15 42 1 21 33 -9 13 -16 26 -16 29 0 3 23 31 50 62 28 31 48
59 45 62 -2 3 -30 -18 -60 -47 -55 -50 -75 -61 -75 -42 0 10 119 119 147 135
11 6 22 -1 42 -25 27 -32 51 -34 51 -2 0 40 -65 91 -197 153 l-63 30 -203 0
c-113 0 -229 -5 -258 -11 -30 -6 -97 -12 -149 -13 -91 -2 -104 -5 -225 -51
-33 -13 45 64 87 86 20 10 76 30 125 45 79 23 100 25 206 21 98 -4 116 -3 107
8 -25 30 -150 29 -315 -1 l-30 -6 24 20 c35 29 210 62 324 62 54 0 97 4 97 9
0 25 -196 22 -300 -5 -37 -10 -13 10 36 29 76 29 192 47 306 47 90 0 109 2 99
13 -17 17 -229 14 -311 -6 -36 -9 -67 -13 -70 -10 -3 3 0 8 7 10 7 2 29 16 50
31 33 24 47 27 106 25 130 -4 298 -35 389 -73 59 -25 75 -26 57 -3 -35 42
-174 80 -356 98 -74 7 -84 13 -59 34 48 40 127 35 303 -18z m588 -61 c14 -5
25 -17 25 -26 0 -9 27 -46 61 -82 34 -37 70 -79 80 -93 17 -25 17 -27 2 -33
-11 -5 -28 7 -57 40 -23 26 -74 81 -113 124 -40 42 -73 80 -73 84 0 9 31 3 75
-14z m300 -30 c3 -5 2 -10 -4 -10 -5 0 -13 5 -16 10 -3 6 -2 10 4 10 5 0 13
-4 16 -10z m68 -34 c37 -15 90 -73 81 -87 -3 -6 -11 -6 -17 -1 -115 86 -140
120 -64 88z m-372 -53 c87 -92 118 -143 86 -143 -17 0 -169 178 -162 190 11
17 21 11 76 -47z m519 25 c0 -6 -6 -5 -15 2 -8 7 -15 14 -15 16 0 2 7 1 15 -2
8 -4 15 -11 15 -16z m-318 -65 c30 -36 30 -47 0 -19 -18 17 -32 31 -32 33 0 9
19 1 32 -14z m409 -21 c-16 -5 -41 5 -41 17 0 7 10 6 26 -1 15 -7 21 -14 15
-16z m216 -108 c51 -51 102 -96 113 -99 24 -7 22 -28 -2 -33 -16 -3 -248 221
-248 239 0 20 49 -18 137 -107z m-223 73 c95 -38 114 -62 34 -42 -29 7 -69 16
-89 19 -20 4 -46 17 -59 31 l-23 25 29 0 c16 0 65 -15 108 -33z m4 -99 c35
-10 62 -22 59 -24 -5 -6 -209 44 -217 53 -9 10 92 -8 158 -29z m-1230 -7 c42
-13 114 -55 131 -75 14 -16 -5 -37 -117 -131 l-34 -28 -67 22 c-70 23 -179 26
-184 6 -1 -5 27 -13 63 -17 87 -9 167 -44 147 -64 -3 -3 -40 2 -82 11 -63 13
-92 14 -159 5 -97 -13 -116 -18 -116 -31 0 -7 37 -8 104 -3 100 6 198 -6 211
-26 6 -9 -14 -70 -23 -70 -4 1 -32 9 -62 20 -67 24 -141 25 -223 4 -64 -16
-118 -47 -104 -60 4 -4 23 0 43 9 57 27 175 42 230 28 62 -16 144 -58 144 -75
0 -25 -13 -24 -71 5 -76 39 -135 45 -229 24 -41 -10 -88 -18 -105 -19 -25 -1
-31 -6 -33 -29 -2 -18 2 -29 12 -33 20 -8 20 -20 0 -28 -8 -3 -33 3 -54 14
-72 37 -112 18 -45 -21 42 -25 43 -33 9 -55 -22 -15 -32 -15 -81 -5 -83 19
-88 0 -9 -34 83 -35 94 -47 62 -68 -22 -15 -30 -15 -95 3 -39 11 -78 20 -87
20 -32 0 -7 -24 47 -43 68 -26 65 -22 45 -51 -27 -43 -18 -48 24 -15 31 25 43
30 52 21 10 -10 -2 -27 -52 -77 -35 -36 -68 -65 -72 -65 -4 0 -25 15 -45 34
-21 18 -57 43 -80 55 -36 18 -43 19 -43 6 0 -8 -4 -15 -9 -15 -11 0 -31 55
-31 85 0 41 37 163 65 212 15 26 34 60 42 75 18 34 68 77 113 96 21 9 30 17
21 20 -28 9 -123 -20 -174 -55 -34 -23 -80 -42 -131 -54 -92 -23 -153 -53
-237 -121 -33 -27 -63 -47 -65 -45 -3 3 11 22 31 42 19 21 35 41 35 46 0 15
135 117 195 146 114 57 160 68 293 68 67 0 122 3 122 6 0 4 -19 12 -43 17 -24
6 -51 20 -60 30 -16 17 -14 20 26 58 53 51 90 74 118 74 21 0 21 -1 6 -18 -29
-32 -19 -35 26 -9 59 35 137 56 231 62 45 3 97 9 116 12 34 5 34 6 11 14 -27
11 -106 5 -231 -18 -70 -12 -95 -12 -143 -2 -80 17 -184 6 -291 -31 -49 -16
-91 -28 -94 -25 -8 7 130 92 198 121 53 22 87 29 185 35 66 4 143 12 170 17
65 12 410 7 453 -7z m1240 -42 c77 -23 99 -43 30 -27 -44 10 -130 46 -113 47
6 1 43 -9 83 -20z m-13 -77 c86 -7 134 -32 199 -100 39 -42 26 -56 -30 -32
-60 26 -161 42 -199 31 -35 -10 -26 -15 60 -31 33 -6 76 -17 95 -23 33 -11 30
-12 -60 -18 -99 -7 -149 3 -166 34 -11 20 -225 124 -271 133 -26 5 -31 9 -21
16 13 9 241 4 393 -10z m-1970 -10 c-6 -5 -37 -16 -70 -26 -72 -22 -155 -63
-155 -76 0 -14 5 -13 59 14 44 23 152 56 182 56 7 0 -14 -24 -47 -54 -58 -53
-61 -54 -146 -65 -47 -6 -116 -22 -152 -36 -36 -14 -66 -21 -66 -16 0 4 13 26
30 49 21 30 51 51 112 81 95 47 287 102 253 73z m2350 -12 c3 -5 1 -10 -4 -10
-6 0 -11 5 -11 10 0 6 2 10 4 10 3 0 8 -4 11 -10z m-30 -70 c31 -34 55 -64 51
-67 -10 -10 -125 99 -126 120 0 18 21 3 75 -53z m-1588 -106 c-9 -9 -28 6 -21
18 4 6 10 6 17 -1 6 -6 8 -13 4 -17z m1818 -17 c27 -46 30 -57 17 -57 -7 0
-52 82 -52 95 0 14 12 1 35 -38z m-2779 14 c-3 -4 -27 -16 -53 -26 -26 -10
-76 -34 -110 -53 -61 -32 -82 -32 -45 1 16 14 143 69 187 80 11 2 21 5 23 6 2
0 1 -3 -2 -8z m2664 -44 c0 -5 -7 -4 -15 3 -8 7 -15 20 -15 29 1 13 3 13 15
-3 8 -11 15 -24 15 -29z m-1743 -8 c2 -8 -6 -25 -17 -39 -16 -21 -21 -23 -29
-10 -7 9 -4 23 7 42 17 29 35 32 39 7z m1683 -39 c0 -8 -9 -1 -20 15 -11 17
-20 35 -20 40 1 16 40 -38 40 -55z m447 -63 c24 -49 42 -96 40 -105 -3 -15 -5
-14 -12 3 -22 53 -86 183 -102 205 l-17 25 23 -20 c13 -11 43 -60 68 -108z
m-413 -3 c10 -38 0 -41 -12 -5 -6 17 -7 31 -3 31 5 0 12 -12 15 -26z m157 -95
c26 -127 31 -169 21 -169 -5 0 -19 48 -31 108 -12 59 -25 118 -28 131 -4 17
-2 22 8 19 8 -3 20 -39 30 -89z m-2781 36 c-13 -24 -50 -35 -50 -16 0 12 51
53 58 46 3 -3 -1 -16 -8 -30z m2914 19 c8 -3 20 -20 25 -37 13 -39 51 -296 51
-343 0 -51 -18 -41 -25 14 -13 101 -38 239 -56 302 -24 81 -24 75 5 64z m101
-74 c15 -36 30 -90 32 -121 6 -66 -5 -172 -17 -164 -4 3 -13 44 -20 92 -6 49
-18 121 -26 162 -26 133 -16 143 31 31z m-3099 45 c-3 -9 -36 -30 -73 -47 -38
-17 -87 -44 -111 -60 -24 -17 -45 -28 -48 -26 -9 9 99 91 163 124 67 35 80 37
69 9z m3240 -13 c-9 -8 -26 10 -26 26 1 15 2 15 15 -2 8 -11 13 -21 11 -24z
m-546 -64 c0 -30 -17 -20 -49 30 -42 66 -39 74 9 27 22 -21 40 -47 40 -57z
m-2934 -30 c-57 -58 -104 -116 -124 -155 -42 -80 -60 -92 -28 -18 33 73 107
166 176 221 30 24 58 44 61 44 3 0 -35 -42 -85 -92z m294 58 c0 -3 -6 -33 -14
-68 -8 -35 -16 -93 -18 -131 -4 -60 -1 -70 19 -89 13 -12 23 -16 23 -9 0 8 11
10 38 5 47 -8 105 -62 139 -128 25 -49 25 -50 13 -177 -11 -117 -10 -131 6
-158 16 -27 16 -34 1 -110 -16 -79 -45 -157 -54 -147 -3 3 7 55 21 117 28 120
27 129 -21 129 -16 0 -24 -9 -33 -37 -16 -50 -80 -173 -90 -173 -9 0 0 41 26
122 13 41 13 50 1 70 -8 13 -22 49 -31 80 -14 50 -31 77 -41 67 -1 -2 4 -41
12 -86 l15 -82 -56 -106 c-31 -58 -56 -114 -56 -123 -1 -9 -11 -30 -25 -46
-19 -24 -26 -27 -38 -17 -29 23 -26 50 8 91 18 22 43 55 54 74 24 39 61 140
61 168 0 31 -18 20 -31 -19 -29 -92 -110 -213 -141 -213 -23 0 -23 8 3 45 27
40 69 122 69 135 0 24 -17 6 -57 -58 -51 -83 -116 -158 -154 -177 -31 -17
-125 -20 -162 -6 -21 8 -67 66 -67 85 0 3 33 6 74 6 94 0 170 28 228 84 60 57
153 238 141 274 -7 18 -21 15 -28 -8 -8 -25 -73 -70 -101 -70 -12 0 -27 7 -34
15 -18 21 -37 19 -43 -6 -5 -19 -11 -21 -46 -16 -61 8 -129 45 -147 79 -9 16
-13 32 -10 36 3 3 40 -12 81 -33 85 -43 106 -40 87 13 -6 17 -8 33 -5 36 12
12 59 6 82 -11 22 -15 25 -15 37 2 10 14 22 16 49 12 19 -3 35 -3 35 1 0 4
-43 36 -95 71 -74 51 -95 70 -95 88 0 13 5 23 11 23 14 0 7 102 -8 107 -8 3
-13 -12 -15 -43 -3 -54 -18 -66 -37 -30 -23 41 -5 74 92 170 86 86 160 139
213 152 l22 6 -24 -83 c-29 -99 -31 -184 -6 -216 14 -20 120 -68 129 -60 1 2
-24 30 -57 62 -68 67 -69 75 -45 183 19 82 47 132 75 132 11 0 20 -2 20 -4z
m460 -46 c0 -15 -46 -34 -65 -26 -14 5 -15 9 -5 21 14 17 70 21 70 5z m55 -40
c10 -17 -5 -50 -23 -50 -9 0 -26 7 -36 15 -16 12 -17 17 -6 30 14 17 56 20 65
5z m-94 -56 c10 -13 10 -17 -2 -25 -18 -11 -56 -12 -64 0 -5 9 31 41 46 41 4
0 12 -7 20 -16z m2519 -86 c14 -100 10 -200 -7 -206 -10 -3 -13 19 -13 85 0
101 -7 133 -26 133 -8 0 -14 4 -14 10 0 5 7 7 15 4 11 -5 15 1 15 25 0 61 18
30 30 -51z m-2435 36 c-22 -14 -60 -36 -85 -49 -25 -13 -70 -48 -100 -79 -30
-31 -60 -56 -67 -56 -73 0 125 181 219 199 70 14 75 12 33 -15z m2646 -127
c-8 -8 -11 4 -10 44 l1 54 10 -44 c7 -30 6 -47 -1 -54z m-372 -53 c5 -30 4
-49 -6 -68 -27 -51 -31 -19 -23 154 l2 55 9 -50 c5 -27 13 -69 18 -91z m-2196
109 c-7 -2 -21 -2 -30 0 -10 3 -4 5 12 5 17 0 24 -2 18 -5z m2307 -92 c0 -64
-3 -80 -16 -85 -26 -10 -28 0 -14 72 23 119 30 122 30 13z m-3434 -22 c3 -30
1 -65 -4 -79 l-10 -25 -11 28 c-12 32 -14 65 -4 121 8 49 20 30 29 -45z m2895
55 c17 -8 29 -18 26 -20 -6 -6 -67 23 -67 31 0 8 10 6 41 -11z m-1634 -19 c12
-8 28 -12 37 -9 21 8 20 7 -8 -52 -34 -71 -66 -186 -59 -212 3 -12 1 -22 -5
-22 -18 0 -26 22 -23 68 1 32 -1 43 -11 40 -14 -5 -23 -87 -13 -126 3 -14 59
-78 123 -143 92 -95 125 -122 157 -130 22 -6 59 -20 82 -31 33 -16 51 -19 89
-13 44 6 47 8 30 20 -16 12 -11 13 35 9 40 -4 59 -2 74 10 20 15 20 15 -3 16
-45 0 -12 17 47 23 50 6 73 16 145 62 47 31 88 60 91 65 12 20 26 10 15 -11
-23 -42 -82 -98 -110 -104 -16 -3 -34 -13 -41 -21 -6 -8 -18 -14 -25 -14 -19
0 -18 -19 1 -26 29 -12 14 -24 -56 -45 -51 -15 -86 -20 -123 -16 -54 5 -106
-1 -106 -12 0 -9 66 -41 85 -41 8 0 15 -6 15 -14 0 -17 103 -93 107 -80 11 30
21 35 54 27 19 -5 86 -6 150 -2 94 6 130 13 195 38 91 36 110 38 137 14 19
-17 19 -17 13 5 -6 19 0 30 36 63 31 28 49 38 63 34 37 -11 157 -25 166 -19 5
3 9 9 9 13 0 11 -46 31 -70 31 -36 0 -21 43 20 58 37 13 84 -3 115 -40 23 -27
26 -39 22 -76 -3 -24 -12 -51 -21 -60 -14 -14 -19 -13 -59 16 -41 29 -52 32
-128 33 -108 3 -129 -4 -129 -41 0 -16 -3 -35 -6 -43 -4 -12 3 -14 40 -10 57
7 71 -4 91 -72 11 -39 25 -61 52 -83 l38 -30 -1 -164 c-1 -184 3 -166 -134
-543 -87 -239 -138 -442 -165 -667 -6 -45 -8 -47 -53 -64 -26 -10 -56 -24 -67
-31 -11 -7 -28 -13 -39 -13 -11 0 -60 -21 -109 -46 -83 -43 -93 -46 -143 -39
-29 3 -68 16 -86 29 -46 30 -59 74 -52 168 3 48 1 85 -6 98 -9 16 -8 22 5 26
8 3 15 16 15 28 0 12 9 27 19 33 11 7 36 42 56 78 20 36 41 65 46 65 4 0 6 7
2 16 -6 16 32 64 53 64 6 0 17 7 24 15 7 9 29 15 51 15 46 0 54 24 14 42 -21
9 -35 8 -78 -10 -63 -25 -124 -42 -154 -42 -12 0 -34 -5 -49 -10 -25 -10 -26
-12 -10 -29 20 -22 12 -31 -28 -31 -35 -1 -129 -37 -172 -67 -18 -13 -52 -22
-91 -26 l-61 -5 -12 45 c-6 25 -20 63 -30 84 -11 21 -20 41 -20 43 0 6 55 36
65 36 3 0 0 -9 -7 -20 -7 -10 -10 -22 -6 -25 11 -11 60 19 74 46 18 36 18 112
-1 148 -20 40 -103 111 -129 111 -33 0 -86 -37 -86 -60 0 -24 8 -25 34 -5 34
26 69 18 115 -24 36 -33 42 -44 39 -73 -3 -32 -5 -33 -48 -34 -61 -2 -151 -38
-202 -81 -50 -41 -77 -53 -123 -53 -29 0 -35 4 -45 34 -6 18 -21 121 -35 229
-13 108 -31 223 -40 256 -19 68 -84 155 -151 205 -23 17 -61 46 -84 64 -35 26
-52 32 -93 32 -44 0 -53 4 -83 36 -19 19 -34 40 -34 45 0 5 26 26 58 46 31 20
77 59 102 86 25 26 66 70 91 97 72 75 139 263 139 388 0 29 5 41 18 44 10 3
22 22 29 49 17 59 70 129 140 184 65 50 86 55 120 23 27 -25 40 -19 24 11 -9
17 -8 22 9 31 21 11 21 11 -2 31 l-23 20 24 -7 c21 -5 23 -3 18 15 -6 25 1 26
30 6z m-287 -28 c0 -7 -16 -28 -35 -47 -42 -41 -49 -19 -9 29 27 33 44 40 44
18z m2732 -2 c0 -5 -5 -11 -11 -13 -6 -2 -11 4 -11 13 0 9 5 15 11 13 6 -2 11
-8 11 -13z m-3522 -117 c0 -4 -11 -8 -24 -8 -17 0 -26 -7 -30 -26 -4 -15 -9
-24 -12 -21 -11 11 -43 151 -37 161 6 10 103 -90 103 -106z m674 97 c-4 -8
-11 -15 -16 -15 -6 0 -5 6 2 15 7 8 14 15 16 15 2 0 1 -7 -2 -15z m2746 -16
c0 -12 -8 -23 -20 -26 -10 -3 -23 -17 -29 -32 l-9 -26 -1 27 c-1 43 16 78 39
78 14 0 20 -7 20 -21z m-2556 -8 c3 -4 -20 -36 -51 -71 -57 -63 -78 -68 -49
-12 35 67 84 109 100 83z m2661 -130 c-12 -62 -17 -23 -9 61 9 81 9 81 12 28
2 -30 0 -70 -3 -89z m-782 11 c75 -34 89 -49 26 -27 -23 8 -66 15 -96 15 -89
0 -156 -42 -303 -190 -129 -128 -253 -241 -299 -272 -30 -21 -85 -24 -79 -5 3
6 16 12 30 13 14 1 40 11 57 23 49 35 261 296 261 321 0 14 139 130 174 146
50 23 149 12 229 -24z m498 -48 c-7 -44 -7 -72 0 -80 15 -18 -12 -88 -36 -92
-22 -3 -64 -74 -90 -151 -15 -45 -121 -201 -137 -201 -11 0 -10 34 1 46 16 16
140 260 162 318 18 50 39 74 39 45 0 -5 4 -8 9 -5 7 5 27 79 47 175 3 13 7 21
10 18 3 -3 1 -36 -5 -73z m156 54 c-3 -8 -6 -5 -6 6 -1 11 2 17 5 13 3 -3 4
-12 1 -19z m-2754 -115 c-13 -84 -18 -101 -27 -92 -9 8 12 150 24 164 7 8 14
15 15 15 1 0 -4 -39 -12 -87z m482 77 c3 -5 -3 -10 -14 -10 -12 0 -21 5 -21
10 0 6 6 10 14 10 8 0 18 -4 21 -10z m1829 -63 c6 -9 7 -19 4 -23 -7 -7 -57
45 -58 60 0 12 41 -17 54 -37z m118 1 c-7 -7 -12 -8 -12 -2 0 14 12 26 19 19
2 -3 -1 -11 -7 -17z m-46 -94 c-7 -88 -34 -191 -66 -255 -21 -40 -110 -142
-118 -135 -2 3 16 39 42 80 60 96 73 128 96 239 10 51 21 100 24 110 3 9 8 24
11 32 12 39 17 7 11 -71z m514 -11 c-11 -46 -77 -159 -86 -150 -3 3 8 32 24
64 17 32 38 86 48 119 14 44 19 53 22 35 2 -13 -1 -44 -8 -68z m-3680 35 c14
-10 54 -24 90 -31 76 -16 93 -37 28 -37 -86 0 -168 41 -168 85 0 17 6 15 50
-17z m2712 5 c56 -61 106 -203 115 -331 5 -65 3 -86 -7 -92 -11 -7 -11 -11 -1
-24 23 -28 -10 -200 -41 -217 -11 -6 -22 -8 -24 -6 -3 3 -10 35 -15 72 -5 37
-18 87 -28 111 -11 23 -17 44 -15 46 2 2 10 37 19 76 15 72 15 73 -10 121 -45
91 -112 134 -177 117 -17 -5 -8 7 32 44 30 28 61 49 69 48 9 -2 28 -28 44 -58
l28 -55 -4 47 c-2 25 -14 60 -26 77 -37 52 -4 71 41 24z m568 17 c0 -5 -5 -10
-11 -10 -5 0 -7 5 -4 10 3 6 8 10 11 10 2 0 4 -4 4 -10z m157 -44 c-7 -62 -44
-151 -82 -199 -19 -23 -43 -60 -53 -82 -17 -37 -127 -144 -136 -134 -3 2 33
59 79 127 46 68 99 154 119 191 20 38 43 74 51 81 11 9 14 22 9 43 -4 22 -3
28 6 22 8 -5 11 -22 7 -49z m-3444 -56 c23 -10 70 -22 105 -26 65 -7 73 -13
45 -35 -11 -10 -46 -14 -118 -14 -72 0 -107 4 -118 14 -20 16 -23 85 -6 128
l11 28 20 -38 c13 -27 32 -44 61 -57z m3036 65 c3 -20 -108 -255 -121 -255
-14 0 -9 18 31 107 22 49 44 107 51 131 11 44 32 52 39 17z m81 15 c0 -5 -5
-10 -11 -10 -5 0 -7 5 -4 10 3 6 8 10 11 10 2 0 4 -4 4 -10z m-260 -51 c-10
-17 -14 -19 -21 -8 -5 9 -2 20 9 32 20 22 28 7 12 -24z m406 14 c-10 -10 -19
5 -10 18 6 11 8 11 12 0 2 -7 1 -15 -2 -18z m-3003 -4 c-6 -6 -17 -8 -24 -3
-9 5 -8 9 7 14 23 9 31 3 17 -11z m2809 -122 c-60 -120 -79 -147 -102 -147
-11 0 -20 5 -20 10 0 6 20 50 45 99 42 84 105 156 114 130 2 -6 -15 -48 -37
-92z m424 25 c-12 -11 -17 7 -9 34 l8 29 3 -28 c2 -16 1 -31 -2 -35z m-585 1
c-20 -51 -41 -68 -41 -33 0 21 38 80 52 80 4 0 -1 -21 -11 -47z m308 10 c-12
-31 -50 -86 -56 -80 -5 5 26 87 40 104 15 21 27 4 16 -24z m-1813 -4 c3 -5 -2
-9 -11 -9 -21 0 -55 18 -55 30 0 11 57 -8 66 -21z m-767 -115 c-13 -43 -37
-98 -55 -124 -17 -25 -35 -60 -38 -77 -4 -17 -16 -39 -27 -49 -23 -21 -25 -12
-3 21 19 29 2 35 -18 7 -7 -10 -22 -18 -33 -19 -11 0 -29 -4 -39 -8 -18 -8
-18 -7 -5 11 78 108 163 212 184 227 14 10 25 24 25 32 0 21 20 68 26 62 3 -3
-4 -41 -17 -83z m-469 60 c0 -24 -66 -45 -140 -45 -61 0 -120 15 -120 30 0 3
44 7 98 8 81 1 110 5 160 22 1 1 2 -6 2 -15z m3360 -2 c0 -13 -101 -155 -141
-200 -70 -75 -80 -69 -14 9 25 29 67 86 93 126 43 67 62 86 62 65z m-153 -94
c-38 -56 -104 -134 -90 -107 18 35 117 168 121 164 3 -3 -11 -29 -31 -57z
m-2606 15 c-12 -20 -14 -14 -5 12 4 9 9 14 11 11 3 -2 0 -13 -6 -23z m1181 1
c-31 -22 -117 -51 -172 -58 -53 -7 -41 -2 85 41 105 36 117 39 87 17z m413 -3
c-23 -22 -117 -72 -124 -65 -7 7 31 33 59 40 14 4 36 15 50 25 33 24 39 24 15
0z m-1612 -61 c-3 -12 -8 -19 -11 -16 -5 6 5 36 12 36 2 0 2 -9 -1 -20z m-284
-12 c-7 -13 -20 -35 -31 -50 -11 -16 -17 -32 -14 -37 3 -5 -3 -20 -13 -32 -15
-18 -22 -21 -31 -13 -18 18 -9 38 40 98 47 57 69 73 49 34z m1418 -15 c-9 -9
-29 -13 -53 -11 l-39 3 45 16 c50 18 70 15 47 -8z m-1652 -3 c-18 -30 -185
-75 -185 -51 0 6 15 11 34 11 40 0 92 17 126 41 26 18 37 18 25 -1z m2346 -25
c37 -20 95 -109 109 -167 17 -77 12 -236 -11 -318 -18 -67 -90 -211 -74 -150
22 88 36 225 32 315 -6 133 -27 193 -89 255 -67 67 -47 106 33 65z m-2291 -50
c0 -14 -51 -35 -84 -35 -18 0 -15 6 19 34 29 25 43 31 53 24 6 -6 12 -16 12
-23z m2635 -13 c-6 -7 -35 18 -35 31 0 5 9 2 20 -8 11 -10 18 -20 15 -23z
m-2735 20 c0 -15 -58 -42 -89 -42 -43 0 -39 18 7 25 20 4 46 10 57 15 26 11
25 11 25 2z m2789 -44 c93 -23 216 -29 312 -14 l57 8 5 -33 c4 -19 11 -59 16
-89 13 -72 13 -207 0 -300 -22 -167 -28 -199 -52 -290 -56 -209 -129 -358
-251 -512 -83 -104 -85 -106 -152 -127 -97 -32 -148 -35 -245 -17 -107 20
-142 20 -180 0 -17 -8 -33 -13 -36 -10 -7 6 45 252 61 291 13 32 39 104 141
405 56 164 77 240 99 371 5 27 16 42 51 67 50 35 60 61 71 190 3 45 9 82 11
82 3 0 44 -10 92 -22z m-2649 -33 c0 -16 -48 -40 -59 -29 -7 6 36 44 50 44 5
0 9 -7 9 -15z m155 -15 c-3 -5 -13 -10 -21 -10 -8 0 -14 5 -14 10 0 6 9 10 21
10 11 0 17 -4 14 -10z m-3500 -93 c7 -6 -8 -7 -45 -3 -30 4 -59 11 -64 16 -6
6 12 7 45 3 30 -3 59 -10 64 -16z m3305 -7 c0 -5 -5 -10 -11 -10 -5 0 -7 5 -4
10 3 6 8 10 11 10 2 0 4 -4 4 -10z m-3198 -40 c25 -7 52 -28 86 -68 52 -60 88
-112 79 -112 -14 0 -104 67 -129 96 -15 17 -43 42 -63 55 -55 38 -45 49 27 29z
m-168 -19 c4 -5 3 -19 -2 -30 -7 -21 -8 -21 -37 9 l-29 30 32 0 c17 0 33 -4
36 -9z m150 -121 c19 -22 38 -51 42 -64 4 -16 11 -23 20 -19 29 11 93 -184 66
-201 -5 -3 -15 1 -22 9 -19 23 -30 18 -46 -21 -11 -26 -18 -34 -26 -26 -8 8
-6 21 7 47 17 37 17 37 -9 64 -17 18 -30 49 -41 99 -8 39 -22 88 -30 108 -18
43 -18 44 -6 44 5 0 25 -18 45 -40z m321 -377 c-16 -41 -42 -63 -31 -25 15 49
36 152 38 187 1 22 4 4 5 -40 3 -57 -1 -92 -12 -122z m-506 37 c12 -57 9 -70
-16 -54 -12 7 -73 161 -73 184 0 3 18 -13 39 -36 28 -30 42 -55 50 -94z m403
-13 c-27 -26 -58 -16 -42 13 8 16 15 19 24 11 18 -15 26 -4 28 38 l1 36 4 -39
c3 -29 -1 -44 -15 -59z m-262 57 c0 -14 -33 -74 -41 -74 -12 0 -11 37 1 61 10
17 40 27 40 13z m4256 -546 c16 -31 19 -72 4 -63 -16 10 -70 108 -64 116 7 11
43 -21 60 -53z m1120 47 c-3 -9 0 -24 6 -34 9 -14 8 -37 -5 -97 -9 -44 -22
-117 -28 -163 -8 -59 -17 -88 -30 -99 -23 -20 -25 -44 -3 -35 14 5 15 3 4 -17
-10 -19 -14 -20 -26 -8 -20 20 -4 160 37 322 35 140 36 146 45 146 3 0 3 -7 0
-15z m-626 -66 c0 -16 -54 -90 -92 -126 -56 -54 -133 -78 -157 -49 -20 23 -2
44 77 87 43 23 92 55 110 70 33 29 62 38 62 18z m-5153 -156 c-9 -15 -38 -53
-67 -83 -60 -65 -55 -52 19 48 54 73 76 89 48 35z m4740 -58 c32 -61 73 -170
73 -191 0 -23 -17 -8 -25 23 -3 15 -29 74 -58 132 -28 58 -53 111 -55 116 -16
34 45 -39 65 -80z m73 55 c0 -5 -5 -10 -11 -10 -5 0 -7 5 -4 10 3 6 8 10 11
10 2 0 4 -4 4 -10z m107 -94 c26 7 93 -21 93 -38 0 -8 -5 -19 -11 -25 -30 -30
36 -177 100 -220 28 -19 48 -23 107 -23 40 0 84 5 98 11 14 7 32 9 40 6 14 -6
13 -14 -10 -64 -65 -144 -86 -256 -93 -505 -1 -10 -8 -18 -17 -18 -23 0 -137
118 -163 167 -37 74 -119 335 -136 433 -9 52 -28 127 -42 165 -14 39 -27 82
-30 98 -5 26 -4 27 20 18 14 -5 34 -7 44 -5z m-4997 -61 c-7 -8 -17 -15 -23
-15 -5 0 -2 9 8 20 21 23 35 19 15 -5z m-88 -25 c-18 -17 -37 -30 -44 -30 -14
0 -8 6 34 36 45 32 49 29 10 -6z m5757 -131 c-9 -29 -13 -117 -14 -259 0 -206
-1 -217 -24 -260 -57 -109 -105 -143 -194 -138 -49 3 -52 5 -50 28 17 218 35
329 59 366 8 11 22 45 32 75 42 120 62 157 95 170 18 7 47 26 66 41 18 16 35
27 38 25 2 -3 -1 -25 -8 -48z m-762 29 c6 -7 13 -54 15 -104 5 -81 9 -98 42
-156 20 -36 44 -89 55 -119 27 -79 62 -145 120 -224 28 -38 51 -73 51 -77 0
-5 7 -8 14 -8 21 0 112 -63 99 -67 -23 -8 -96 40 -156 101 -76 76 -124 155
-158 260 -28 85 -49 109 -49 57 0 -33 -14 -42 -24 -15 -3 9 -13 81 -21 161 -9
80 -16 148 -16 151 -6 44 9 64 28 40z m870 -58 c1 -8 5 -50 8 -94 6 -65 10
-79 26 -83 26 -7 24 -22 -4 -32 l-24 -9 -7 -304 c-13 -613 -33 -772 -133
-1072 -90 -270 -286 -649 -422 -816 -20 -25 -53 -67 -73 -95 -51 -70 -397
-408 -490 -479 -116 -88 -114 -62 3 37 100 85 268 259 404 417 114 134 273
362 323 465 174 354 249 551 277 728 41 255 48 375 50 855 3 490 4 507 44 500
9 -2 17 -10 18 -18z m84 -17 c12 -31 3 -153 -11 -153 -5 0 -8 41 -8 90 1 50 3
90 5 90 2 0 8 -12 14 -27z m-6121 -123 c-8 -5 -28 -9 -45 -9 -30 2 -30 2 5 9
51 11 57 11 40 0z m175 -10 c-3 -5 -16 -15 -28 -21 -22 -12 -22 -12 -3 10 19
21 43 30 31 11z m35 -70 c0 -31 -56 -87 -105 -104 -25 -8 -45 -11 -45 -6 0 5
9 11 19 15 11 3 40 30 66 60 50 59 65 67 65 35z m-50 -135 c-26 -28 -83 -50
-107 -41 -23 9 -7 22 57 45 73 26 78 25 50 -4z m5085 -97 c18 -42 30 -79 27
-82 -3 -4 -13 -6 -23 -6 -18 0 -19 -21 -19 -407 0 -225 -4 -466 -10 -538 -18
-232 -39 -416 -55 -468 -8 -29 -21 -87 -30 -129 -37 -191 -51 -240 -96 -345
-102 -238 -268 -543 -311 -569 -22 -14 -18 8 7 53 166 288 296 582 349 787 22
83 62 377 80 581 19 224 27 633 15 815 -5 80 -12 188 -15 242 -8 118 -2 151
28 146 16 -2 29 -22 53 -80z m675 -129 c0 -28 -102 -130 -117 -116 -6 7 98
126 110 127 4 0 7 -5 7 -11z m-482 -116 c28 -20 80 -46 115 -58 59 -20 62 -23
59 -50 -2 -16 -16 -60 -32 -97 -44 -103 -51 -160 -59 -473 l-7 -290 -36 -80
c-43 -95 -54 -136 -63 -234 -4 -41 -11 -88 -16 -105 -5 -17 -16 -87 -24 -155
-18 -154 -38 -199 -137 -311 -104 -117 -346 -355 -353 -348 -4 3 7 21 23 39
98 114 213 308 262 444 18 50 41 108 51 130 40 89 74 307 109 715 17 201 20
305 18 580 -2 184 -7 344 -12 355 -9 18 -7 18 20 -3 16 -13 53 -39 82 -59z
m273 21 c11 -14 10 -18 -6 -30 -33 -24 -85 -15 -67 12 7 11 42 33 53 34 4 0
13 -7 20 -16z m199 -81 c0 -81 -25 -387 -40 -493 -6 -41 -27 -137 -47 -212
-40 -149 -39 -147 -118 -148 -22 0 -60 -9 -84 -20 -24 -11 -46 -18 -48 -16 -3
2 1 29 7 59 9 38 11 124 8 283 -5 224 1 283 27 314 20 23 54 167 42 179 -18
18 5 31 59 31 57 0 108 24 148 69 35 39 46 27 46 -46z m-6555 -449 c14 -6 12
-11 -11 -35 -40 -42 -58 -39 -37 6 18 37 21 39 48 29z m6789 -226 c84 -133
320 -611 289 -587 -10 8 -81 73 -158 144 -159 148 -199 179 -221 171 -24 -9
-15 -22 59 -84 37 -31 128 -115 202 -186 112 -107 137 -126 150 -116 12 10 20
0 49 -62 19 -40 47 -104 62 -143 56 -140 183 -300 341 -431 62 -52 122 -112
150 -151 40 -57 44 -67 35 -91 -6 -15 -13 -39 -16 -53 -3 -14 -42 -84 -87
-155 -45 -71 -113 -187 -152 -259 -39 -71 -87 -155 -107 -185 -20 -30 -76
-122 -124 -203 -148 -249 -284 -405 -405 -466 -227 -115 -971 -385 -1174 -427
-43 -8 -101 -26 -130 -39 -29 -13 -133 -42 -232 -65 -169 -39 -773 -188 -841
-209 -17 -5 -44 -17 -59 -27 -15 -10 -63 -25 -106 -35 l-79 -17 0 54 c0 42
-11 81 -45 165 -72 173 -79 225 -70 484 4 121 10 282 14 359 l6 138 60 19 c33
10 99 42 146 71 47 29 108 67 135 83 27 17 82 63 122 104 63 64 74 72 85 58
10 -14 27 -15 127 -8 66 5 132 15 154 25 22 9 47 14 58 10 13 -4 18 0 18 14 0
12 17 30 41 47 62 41 125 102 139 134 12 29 64 77 110 101 14 7 77 44 142 82
l116 69 49 -24 c27 -14 74 -33 105 -42 31 -9 76 -30 100 -47 71 -51 218 -179
233 -202 7 -11 34 -82 60 -156 77 -220 164 -372 262 -454 41 -34 91 -52 105
-38 17 17 2 39 -31 45 -41 9 -115 87 -175 187 -50 83 -124 264 -146 360 -20
84 -30 99 -149 200 -119 102 -237 171 -329 191 l-53 12 47 48 c30 30 52 45 58
40 20 -15 140 -50 231 -66 76 -14 114 -29 241 -94 83 -43 203 -113 267 -155
112 -75 137 -84 137 -47 0 35 -439 291 -590 344 -25 8 -94 23 -154 33 l-109
18 57 53 c32 29 62 51 67 47 5 -3 16 0 24 6 16 14 111 10 230 -10 107 -18 215
-7 215 21 0 17 -8 19 -88 19 -48 0 -115 7 -147 16 -38 10 -82 14 -117 11 -32
-3 -58 -1 -58 3 0 4 15 21 34 38 104 91 230 255 479 620 31 45 136 268 192
408 18 44 47 137 66 207 18 70 37 127 41 127 5 0 23 -24 42 -52z m-394 -225
c0 -5 -14 -51 -31 -102 -54 -165 -188 -421 -278 -531 -24 -29 -24 -27 -12 37
6 26 19 104 31 173 12 69 27 145 35 170 42 143 36 133 95 161 30 15 73 43 95
63 38 33 65 45 65 29z m-164 -48 c-11 -8 -22 -12 -25 -9 -6 6 19 24 34 24 6
-1 1 -7 -9 -15z m-6440 -197 c-5 -53 -17 -94 -43 -150 -53 -115 -61 -107 -43
42 16 131 35 173 84 179 5 0 6 -30 2 -71z m2434 -837 c12 -24 13 -31 2 -31 -5
0 -14 11 -20 25 -14 29 2 34 18 6z m25 -131 c22 -6 150 -14 285 -19 320 -11
368 -27 429 -141 27 -50 157 -153 276 -220 148 -83 212 -129 293 -214 40 -42
95 -87 121 -101 41 -20 50 -30 55 -60 5 -22 13 -35 23 -35 12 0 14 7 9 31 -3
17 -6 42 -6 55 0 18 -10 29 -45 45 -25 12 -45 25 -45 30 0 15 60 10 138 -10
77 -20 149 -66 184 -119 30 -43 88 -160 88 -176 0 -29 -139 -60 -420 -92 -139
-16 -179 -16 -410 -5 -322 15 -417 30 -485 76 -68 47 -121 64 -250 80 -60 8
-139 23 -175 35 -36 11 -72 18 -80 15 -31 -10 -220 97 -220 123 0 4 24 5 54 4
55 -4 55 -4 74 35 11 21 22 59 26 84 l7 46 67 -22 c37 -13 87 -32 112 -43 70
-31 312 -75 408 -75 98 1 172 19 172 41 0 12 -14 14 -92 8 -87 -5 -341 14
-355 28 -3 3 7 20 21 37 15 18 49 75 76 128 42 85 52 98 85 109 65 24 55 68
-13 56 -20 -4 -58 0 -90 9 -126 36 -193 48 -316 58 l-128 9 -52 -49 c-28 -27
-114 -112 -191 -188 -120 -119 -147 -141 -185 -151 -24 -6 -46 -9 -48 -7 -3 2
10 25 27 51 36 55 37 61 14 86 -15 17 -15 20 8 51 13 17 39 55 57 82 46 68 97
119 162 163 30 20 88 64 127 99 68 59 76 63 120 63 27 0 66 -5 88 -10z m-285
-24 c0 -2 -30 -27 -67 -54 -94 -70 -124 -103 -196 -219 -74 -119 -125 -170
-157 -153 -29 15 -25 30 23 96 23 33 52 73 62 91 11 17 40 61 64 96 42 63 47
67 125 96 66 24 108 39 144 50 1 1 2 -1 2 -3z m402 -233 c23 -14 82 -33 107
-33 42 0 101 -22 101 -38 0 -33 -71 -161 -109 -195 l-40 -36 -83 23 c-46 13
-109 36 -140 50 -61 29 -168 51 -204 42 -14 -4 -35 -27 -53 -59 -16 -29 -41
-63 -55 -76 -25 -23 -26 -23 -52 -6 l-27 18 79 76 c44 42 111 105 148 140 l67
64 92 -41 c51 -23 111 -45 135 -48 31 -5 48 -14 63 -35 11 -16 29 -29 40 -29
23 0 24 12 5 49 -13 24 -30 32 -128 60 -62 18 -129 39 -148 48 -34 14 -34 15
-15 30 16 12 39 14 112 10 51 -3 98 -9 105 -14z m2678 9 c0 -9 -80 -45 -87
-39 -2 3 15 14 39 26 49 24 48 24 48 13z m0 -42 c0 -5 -17 -25 -37 -45 -68
-66 -239 -147 -278 -132 -15 6 -13 10 16 30 18 12 40 36 49 52 15 30 42 58 71
75 12 7 23 3 43 -15 35 -32 43 -31 91 10 45 39 45 39 45 25z m-67 -204 c20
-30 39 -67 43 -83 l7 -28 -23 20 -23 20 7 -21 c8 -25 -4 -36 -60 -53 -56 -18
-75 -9 -111 52 -52 84 -53 80 34 114 43 17 81 31 84 32 3 0 22 -23 42 -53z
m-344 30 c9 -10 9 -16 1 -21 -12 -7 -40 11 -40 26 0 14 26 10 39 -5z m-2964
-6 c6 -10 -19 -65 -43 -92 -17 -20 -47 -24 -57 -8 -6 10 72 109 87 110 4 0 10
-4 13 -10z m-152 -12 c14 -11 15 -19 6 -50 -11 -43 -19 -46 -44 -18 -19 21
-45 27 -45 11 0 -19 36 -45 108 -79 83 -39 129 -40 203 -4 l42 21 29 -21 c37
-26 88 -96 82 -111 -2 -7 -20 -23 -39 -36 -31 -21 -41 -23 -102 -16 -81 8
-143 35 -261 111 -101 65 -129 89 -148 127 -14 26 -13 29 12 52 22 21 37 25
84 25 31 0 64 -6 73 -12z m601 -23 c11 -9 15 -18 10 -27 -5 -7 -7 -25 -5 -41
1 -15 -3 -43 -9 -62 -10 -29 -16 -35 -40 -35 l-29 0 6 85 c10 140 -15 104 -42
-60 l-7 -40 -15 29 c-17 33 -13 127 8 152 15 18 98 18 123 -1z m2470 -35 c14
-22 26 -45 26 -51 0 -21 -70 -98 -118 -131 -26 -18 -72 -53 -104 -79 -64 -53
-142 -94 -218 -114 l-51 -14 -29 64 c-46 103 -96 172 -160 221 -33 26 -58 49
-57 51 2 2 55 8 118 14 63 5 161 19 219 30 149 28 269 46 311 48 32 1 40 -4
63 -39z m76 0 c0 -5 -2 -10 -4 -10 -3 0 -8 5 -11 10 -3 6 -1 10 4 10 6 0 11
-4 11 -10z m130 -93 c0 -16 -24 9 -43 45 l-18 33 30 -35 c17 -19 31 -38 31
-43z m-3466 38 c6 -18 -2 -45 -15 -45 -5 0 -9 14 -9 30 0 32 14 40 24 15z
m3395 -20 c11 -19 16 -35 10 -35 -14 0 -48 41 -49 58 0 23 18 12 39 -23z
m-134 -104 c-3 -6 -11 -11 -17 -11 -6 0 -6 6 2 15 14 17 26 13 15 -4z m-3096
-7 c15 -11 21 -23 18 -36 -4 -14 3 -25 29 -40 46 -27 30 -49 -18 -26 -18 9
-46 21 -61 27 -34 13 -43 35 -29 67 13 28 29 30 61 8z m81 -54 c13 -8 13 -10
-2 -10 -9 0 -20 5 -23 10 -8 13 5 13 25 0z m443 -17 c87 -44 117 -93 58 -93
-22 0 -38 10 -65 42 -32 37 -46 68 -31 68 4 0 20 -7 38 -17z m2492 7 c-3 -5
-13 -10 -21 -10 -8 0 -12 5 -9 10 3 6 13 10 21 10 8 0 12 -4 9 -10z m-75 -59
c0 -11 -31 -24 -39 -16 -3 3 1 10 9 15 19 12 30 12 30 1z m-2240 -41 c8 -5 12
-12 8 -15 -9 -9 -48 4 -48 16 0 12 21 11 40 -1z m2136 -25 c-11 -8 -29 -15
-40 -15 -36 0 7 25 49 29 6 0 1 -6 -9 -14z m-1763 -36 c28 -12 -121 -3 -173
11 -26 7 -11 8 58 4 51 -2 102 -9 115 -15z m1652 -9 c17 -6 14 -9 -17 -15 -21
-4 -46 -4 -55 0 -15 7 -13 9 12 15 39 10 37 10 60 0z m-1892 -13 c34 -15 64
-44 54 -53 -7 -8 -107 46 -107 58 0 12 16 10 53 -5z m234 -57 c14 -9 5 -10
-45 -6 -69 6 -102 19 -102 40 0 11 13 10 65 -5 35 -9 72 -23 82 -29z m121 4
c47 -22 53 -28 38 -36 -23 -13 -61 -3 -86 24 -20 22 -26 38 -13 38 3 0 31 -12
61 -26z m1379 10 c-3 -3 -12 -4 -19 -1 -8 3 -5 6 6 6 11 1 17 -2 13 -5z m-92
-24 c4 -6 -6 -10 -24 -10 -16 0 -33 5 -36 10 -4 6 6 10 24 10 16 0 33 -4 36
-10z m-1100 -21 c47 -22 66 -39 44 -39 -20 0 -99 41 -99 51 0 13 4 12 55 -12z
m975 1 c0 -5 -15 -10 -34 -10 -19 0 -38 5 -41 10 -4 6 10 10 34 10 23 0 41 -4
41 -10z m-783 -24 c15 -13 24 -28 20 -32 -9 -9 -97 34 -97 47 0 18 50 8 77
-15z m119 -13 c14 -9 22 -18 19 -21 -3 -3 -11 0 -17 6 -7 7 -19 12 -28 12 -9
0 -25 7 -36 16 -18 15 -18 15 10 9 15 -3 39 -13 52 -22z m134 -3 c39 -21 5
-25 -46 -5 -24 9 -44 20 -44 25 0 10 58 -3 90 -20z m373 23 c-7 -2 -21 -2 -30
0 -10 3 -4 5 12 5 17 0 24 -2 18 -5z m365 -5 c8 -8 12 -47 12 -110 l0 -98
-193 0 c-107 0 -236 -2 -288 -5 l-94 -5 40 19 c22 11 40 26 40 33 0 21 -70 14
-199 -20 -142 -39 -200 -40 -264 -9 -26 13 -76 34 -111 48 -58 22 -141 82
-129 94 2 2 33 -1 69 -7 167 -29 742 -1 966 47 131 28 136 28 151 13z m-1350
-24 c12 -2 22 -10 22 -17 0 -6 25 -25 56 -42 30 -16 60 -36 66 -42 28 -34
-143 2 -211 44 -31 20 -81 64 -81 73 0 5 80 -3 148 -16z m757 4 c7 -7 -2 -9
-29 -5 -22 4 -44 11 -50 18 -8 9 -1 10 29 4 22 -3 45 -11 50 -17z m140 12 c4
-6 -8 -10 -29 -10 -19 0 -38 5 -41 10 -4 6 8 10 29 10 19 0 38 -4 41 -10z
m455 -498 c0 -219 2 -244 24 -322 13 -47 38 -114 57 -150 22 -44 34 -84 37
-124 l5 -59 -49 6 c-42 4 -55 11 -88 49 -41 45 -106 174 -126 249 -11 43 -128
371 -156 437 -7 18 -31 54 -54 80 -22 27 -40 51 -40 55 0 4 66 8 148 10 81 1
168 4 195 5 l47 2 0 -238z m2290 -87 c-14 -8 -32 -14 -40 -14 -8 0 -1 7 15 14
39 18 57 18 25 0z"/>
<path d="M7752 9828 c3 -7 39 -26 81 -43 93 -37 161 -83 188 -130 23 -39 31
-42 49 -20 36 43 -111 153 -255 191 -62 17 -68 17 -63 2z"/>
<path d="M7929 9370 c-41 -32 -87 -57 -127 -70 -98 -31 -109 -42 -33 -36 62 6
63 5 48 -12 -17 -18 -23 -42 -11 -42 9 0 214 194 214 202 0 19 -31 4 -91 -42z"/>
<path d="M8389 9376 c-44 -16 -120 -78 -174 -143 -22 -26 -73 -83 -113 -125
-41 -42 -71 -82 -68 -87 7 -11 -32 -36 -42 -27 -3 4 5 20 17 37 29 39 20 48
-26 24 -59 -32 -86 -57 -72 -65 15 -10 -11 -24 -89 -51 -64 -22 -92 -25 -44
-4 36 16 43 36 10 28 -87 -19 -146 -45 -157 -70 -6 -14 -10 -28 -7 -30 6 -7
109 16 174 38 30 10 57 17 59 15 6 -5 -92 -42 -177 -67 -127 -37 -176 -79 -92
-79 143 0 402 127 466 229 28 45 198 238 254 290 21 18 61 45 90 58 54 25 94
27 195 7 41 -8 33 13 -10 25 -51 15 -150 13 -194 -3z m-559 -516 c-20 -14
-138 -50 -159 -49 -17 0 133 55 159 57 13 2 13 1 0 -8z"/>
<path d="M8069 9286 c-48 -47 -112 -99 -143 -116 -31 -18 -56 -36 -56 -41 0
-18 37 -8 85 24 112 75 109 74 97 52 -5 -11 -38 -42 -71 -70 -33 -27 -56 -52
-51 -53 16 -6 99 60 166 130 59 61 115 148 95 148 -5 0 -15 2 -23 5 -7 2 -51
-33 -99 -79z"/>
<path d="M8005 9300 c-59 -51 -157 -101 -255 -130 -83 -24 -155 -61 -164 -85
-7 -19 -6 -19 45 9 24 14 82 37 129 52 158 50 260 108 291 166 18 34 3 30 -46
-12z"/>
<path d="M9040 9230 c36 -31 50 -37 50 -20 0 11 -59 50 -75 50 -5 -1 6 -14 25
-30z"/>
<path d="M8388 9029 c-62 -34 -168 -127 -168 -148 0 -7 27 11 60 41 52 46 95
78 167 125 37 24 -4 11 -59 -18z"/>
<path d="M7747 9015 c-86 -25 -104 -35 -65 -35 36 0 158 39 158 50 0 13 -2 13
-93 -15z"/>
<path d="M8668 9031 c-21 -4 -46 -15 -55 -23 -10 -9 -29 -19 -43 -23 -39 -12
-138 -63 -146 -76 -10 -16 12 -9 111 35 67 30 91 36 151 36 82 0 171 -15 191
-32 13 -10 11 -13 -7 -20 -29 -11 -18 -24 27 -32 21 -4 71 -23 111 -43 57 -28
75 -34 85 -24 9 10 9 14 -4 21 -9 5 -58 39 -108 76 -51 36 -112 75 -137 85
-51 23 -123 31 -176 20z"/>
<path d="M8117 8965 c-62 -69 -206 -172 -278 -198 -24 -9 -70 -23 -102 -32
-32 -9 -55 -20 -52 -25 4 -6 -6 -15 -20 -20 -17 -7 -25 -16 -23 -28 8 -37 126
-4 188 53 14 13 41 31 61 42 85 43 212 150 261 221 45 66 28 60 -35 -13z"/>
<path d="M8214 8574 c-90 -105 -271 -244 -318 -244 -22 0 -146 -63 -146 -74 0
-20 103 5 178 44 128 66 296 212 338 292 25 49 -3 39 -52 -18z"/>
<path d="M7965 8417 c-24 -18 -11 -41 16 -27 10 6 19 17 19 25 0 19 -11 19
-35 2z"/>
<path d="M7148 9648 c-63 -13 -64 -33 -2 -24 26 3 97 6 157 6 80 0 108 3 100
11 -15 15 -198 20 -255 7z"/>
<path d="M8718 9513 c-26 -7 -22 -23 6 -23 31 0 56 10 56 21 0 9 -31 10 -62 2z"/>
<path d="M6467 8998 c-20 -16 -47 -80 -46 -110 0 -17 5 -12 20 22 11 25 32 57
46 73 19 19 22 27 12 27 -8 0 -23 -6 -32 -12z"/>
<path d="M6380 8901 c-12 -23 -14 -221 -2 -221 5 0 26 -25 47 -55 58 -85 108
-124 193 -149 40 -13 24 14 -22 33 -57 25 -112 74 -152 137 -34 54 -52 104
-37 104 5 0 20 -12 34 -27 47 -51 77 -74 83 -64 4 5 21 5 45 -1 32 -8 44 -18
63 -54 23 -44 51 -57 61 -29 9 23 -80 92 -155 121 -64 24 -94 44 -68 44 7 0
-2 13 -19 29 -20 19 -38 28 -48 24 -14 -6 -15 2 -10 60 7 71 4 79 -13 48z"/>
<path d="M6790 8608 c-23 -38 -23 -38 -11 -57 7 -10 14 -1 30 34 24 55 24 55
11 55 -6 0 -19 -15 -30 -32z"/>
<path d="M7750 7990 c0 -5 5 -10 11 -10 5 0 7 5 4 10 -3 6 -8 10 -11 10 -2 0
-4 -4 -4 -10z"/>
<path d="M7575 7928 c-234 -26 -378 -87 -425 -178 -11 -21 -26 -40 -35 -43
-24 -10 -18 -34 19 -70 18 -19 37 -44 41 -56 11 -34 24 -24 18 14 -5 32 -4 35
19 35 19 0 24 -5 24 -22 -1 -18 6 -23 37 -29 48 -8 71 -27 42 -35 -63 -17
-120 -40 -120 -49 0 -14 50 -21 119 -15 41 3 60 9 58 18 -1 6 7 12 18 12 12 0
33 6 49 14 38 20 62 6 43 -25 -13 -21 -13 -21 20 -15 18 4 46 8 62 10 17 2 36
13 45 26 8 12 32 33 53 47 22 13 51 44 66 69 20 34 36 47 63 54 46 13 67 36
50 53 -21 21 -167 14 -251 -12 -123 -37 -160 -52 -160 -63 0 -19 93 0 157 32
42 21 70 29 84 25 21 -7 21 -8 -7 -31 -44 -37 -118 -73 -173 -85 -27 -6 -55
-17 -61 -25 -15 -17 -31 -9 -23 11 3 8 0 15 -7 15 -10 0 -10 3 0 15 16 19 -8
30 -46 21 -22 -6 -24 -5 -15 12 12 23 5 32 -22 32 -16 0 -18 5 -12 28 9 40 30
55 133 101 86 38 249 81 309 81 18 0 24 5 21 18 -4 21 -69 24 -193 10z"/>
<path d="M7985 7910 c3 -5 8 -10 11 -10 2 0 4 5 4 10 0 6 -5 10 -11 10 -5 0
-7 -4 -4 -10z"/>
<path d="M7970 7890 c0 -5 5 -10 11 -10 5 0 7 5 4 10 -3 6 -8 10 -11 10 -2 0
-4 -4 -4 -10z"/>
<path d="M7990 3960 c0 -5 5 -10 10 -10 6 0 10 5 10 10 0 6 -4 10 -10 10 -5 0
-10 -4 -10 -10z"/>
<path d="M8470 3575 c-69 -7 -154 -18 -190 -24 -36 -6 -123 -11 -193 -11 -107
0 -129 -3 -134 -16 -3 -8 1 -23 10 -32 15 -14 34 -15 184 -4 92 6 247 20 343
31 96 11 196 21 221 21 68 0 165 -36 190 -71 17 -24 24 -27 35 -18 21 17 17
32 -14 62 -72 69 -215 88 -452 62z"/>
<path d="M4585 2972 c-75 -36 -120 -74 -157 -131 -54 -87 -29 -108 42 -35 25
25 68 59 97 76 34 19 50 34 46 44 -3 8 7 20 26 31 29 17 36 33 15 40 -5 2 -36
-10 -69 -25z"/>
<path d="M4905 2650 c-4 -6 -4 -31 -1 -55 4 -26 1 -69 -9 -110 -19 -82 -19
-75 6 -75 33 0 52 61 47 148 -5 73 -26 119 -43 92z"/>
<path d="M4025 2870 c3 -5 25 -14 48 -20 23 -6 50 -13 60 -16 9 -3 17 -1 17 4
0 11 -83 42 -112 42 -11 0 -16 -4 -13 -10z"/>
<path d="M3566 2675 c-5 -13 -16 -16 -51 -13 -54 4 -58 -6 -10 -22 45 -15 79
-10 83 14 5 25 -13 42 -22 21z"/>
<path d="M2860 7645 c-10 -12 -9 -16 5 -21 23 -9 40 10 22 25 -11 9 -17 8 -27
-4z"/>
<path d="M2348 7583 c6 -2 18 -2 25 0 6 3 1 5 -13 5 -14 0 -19 -2 -12 -5z"/>
<path d="M2812 7578 c-19 -19 -14 -28 15 -28 15 0 51 -12 80 -27 60 -30 78
-25 43 12 -17 19 -100 55 -125 55 0 0 -6 -5 -13 -12z"/>
<path d="M1575 7510 c-3 -5 -2 -10 4 -10 5 0 13 5 16 10 3 6 2 10 -4 10 -5 0
-13 -4 -16 -10z"/>
<path d="M1634 7401 c-113 -44 -358 -194 -383 -234 -12 -19 -21 -37 -21 -40 0
-13 106 44 126 67 25 29 131 83 224 116 94 33 147 57 154 69 4 6 -1 19 -11 30
-18 19 -19 19 -89 -8z"/>
<path d="M11775 7401 c-104 -60 -229 -196 -310 -336 -9 -15 -15 -16 -32 -7
-12 7 -83 19 -160 27 -191 22 -333 55 -578 136 -115 37 -250 77 -298 89 -105
24 -247 28 -247 6 0 -15 69 -33 232 -61 51 -9 167 -41 258 -72 230 -76 437
-128 625 -154 88 -12 162 -24 164 -25 2 -2 -6 -18 -17 -37 -58 -99 -124 -374
-152 -639 -13 -126 -13 -447 1 -579 26 -261 93 -466 212 -654 39 -60 102 -174
139 -252 38 -79 73 -144 78 -144 31 -5 34 -1 36 41 2 37 -8 66 -61 176 -36 71
-94 173 -131 225 -150 211 -215 435 -235 804 -12 238 0 442 41 661 37 198 61
270 141 421 51 95 80 135 149 207 47 48 113 109 148 133 34 25 60 49 56 54 -7
11 -1 13 -59 -20z"/>
<path d="M1925 7194 c-76 -53 -180 -113 -224 -129 -34 -12 -41 -12 -52 1 -30
36 -217 1 -349 -66 -54 -28 -105 -68 -97 -76 2 -2 42 16 88 40 146 77 264 103
314 70 47 -31 128 0 293 109 50 34 92 67 92 74 0 19 -10 16 -65 -23z"/>
<path d="M1892 7086 c-51 -35 -113 -70 -137 -77 -25 -7 -45 -17 -45 -22 0 -20
77 4 151 48 43 25 82 45 86 45 13 0 -40 -49 -71 -65 -17 -9 -45 -26 -62 -39
l-31 -22 39 -12 c30 -10 44 -10 61 -1 63 34 126 100 141 147 7 21 5 22 -21 16
-23 -5 -26 -4 -15 7 13 14 16 39 5 39 -5 0 -50 -29 -101 -64z m-2 -105 c0 -5
-7 -12 -16 -15 -14 -5 -15 -4 -4 9 14 17 20 19 20 6z"/>
<path d="M2430 7130 c0 -27 31 -79 61 -104 19 -15 24 -23 12 -17 -12 6 -38 28
-58 48 -19 20 -38 34 -41 30 -12 -12 8 -47 51 -86 41 -38 49 -41 101 -41 31 0
83 7 116 16 76 19 87 15 42 -15 -54 -37 -132 -60 -204 -60 -64 -1 -97 11 -187
69 -32 21 -40 4 -13 -25 42 -44 117 -75 185 -75 114 0 238 48 269 105 6 11 30
43 54 72 37 46 54 83 35 83 -3 0 -21 -17 -39 -39 -19 -21 -54 -48 -79 -60 -70
-33 -77 -25 -11 12 55 31 82 57 58 57 -6 0 -43 -16 -83 -35 -105 -50 -131 -53
-180 -21 -22 15 -50 43 -61 62 -21 35 -28 41 -28 24z"/>
<path d="M1073 7003 c-63 -63 -120 -150 -106 -163 3 -3 17 10 32 28 14 19 55
70 89 114 35 44 62 82 59 85 -3 3 -36 -26 -74 -64z"/>
<path d="M2833 6951 c-7 -11 -40 -52 -73 -90 -69 -80 -60 -93 17 -26 56 49 98
109 88 125 -9 15 -19 12 -32 -9z"/>
<path d="M1400 6931 c-74 -24 -113 -44 -190 -102 -74 -54 -207 -185 -198 -194
3 -4 39 24 80 61 114 105 164 142 253 184 84 41 115 47 159 30 20 -7 26 -6 26
5 0 12 -13 19 -60 30 -8 2 -40 -4 -70 -14z"/>
<path d="M1910 6879 c-127 -77 -243 -105 -314 -75 -48 20 -62 21 -47 2 6 -7
33 -19 59 -26 26 -7 56 -21 67 -30 36 -31 69 -32 157 -4 94 30 148 55 168 79
26 32 -3 28 -83 -12 -98 -49 -157 -66 -187 -55 -19 7 -9 13 66 40 94 34 194
86 194 102 0 21 -19 16 -80 -21z"/>
<path d="M2602 6849 c-144 -59 -250 -62 -355 -8 -79 40 -107 34 -48 -9 105
-77 227 -79 426 -7 16 5 15 3 -5 -14 -14 -11 -56 -33 -95 -48 -38 -14 -74 -32
-80 -38 -37 -43 -125 -47 -204 -10 -59 28 -94 20 -48 -10 68 -44 209 -58 302
-30 63 18 71 11 14 -13 -125 -53 -183 -52 -299 4 -40 19 -75 32 -79 29 -8 -9
35 -41 99 -73 79 -39 158 -37 265 7 79 32 152 78 141 88 -3 3 9 24 26 45 31
39 45 108 23 114 -5 1 -43 -11 -83 -27z"/>
<path d="M1984 6793 c-87 -68 -152 -104 -199 -111 -25 -4 -45 -11 -45 -17 1
-18 83 -9 130 13 55 27 185 123 183 137 -3 20 -22 14 -69 -22z"/>
<path d="M2130 6806 c0 -28 17 -43 32 -28 7 7 6 17 -1 31 -16 28 -31 27 -31
-3z"/>
<path d="M900 6749 c0 -5 5 -7 10 -4 6 3 10 8 10 11 0 2 -4 4 -10 4 -5 0 -10
-5 -10 -11z"/>
<path d="M2641 6650 c-94 -71 -246 -157 -310 -175 -20 -6 -23 -4 -17 10 12 33
-6 35 -49 5 -24 -16 -53 -30 -65 -30 -12 0 -19 -4 -15 -9 8 -14 -19 -36 -88
-75 -94 -52 -135 -60 -209 -41 -34 8 -76 25 -95 36 -18 11 -33 16 -33 10 0
-17 59 -53 127 -76 l66 -23 -37 -7 c-24 -5 -60 -2 -99 8 -121 31 -114 30 -93
13 40 -33 292 -65 353 -45 65 21 253 141 253 160 0 6 -6 9 -12 6 -68 -29 -195
-77 -202 -77 -5 0 20 19 55 42 73 47 147 74 163 58 5 -5 25 -10 43 -10 43 0
217 98 283 160 44 42 111 141 93 139 -4 0 -55 -36 -112 -79z m34 -20 c-8 -13
-65 -43 -71 -37 -5 5 56 47 69 47 5 0 5 -5 2 -10z m-525 -320 c-29 -22 -128
-55 -137 -46 -9 9 -5 11 77 39 92 31 91 31 60 7z"/>
<path d="M1309 6690 c-51 -33 -180 -163 -199 -200 -7 -14 32 18 86 70 102 99
160 136 194 125 30 -9 25 -17 -31 -50 -60 -35 -159 -136 -159 -161 0 -12 23 6
68 53 42 43 89 80 124 97 59 29 63 40 30 79 -22 25 -63 21 -113 -13z"/>
<path d="M1562 6566 c-77 -55 -143 -126 -116 -126 7 0 174 140 174 146 0 11
-28 1 -58 -20z"/>
<path d="M1925 6543 c-40 -27 -80 -33 -124 -18 -21 7 -22 6 -12 -14 18 -33 94
-29 154 9 46 29 60 50 34 50 -7 0 -30 -12 -52 -27z"/>
<path d="M1318 6521 c-18 -16 -29 -33 -25 -37 4 -4 24 9 45 29 43 44 27 50
-20 8z"/>
<path d="M3335 6504 c-153 -79 -211 -129 -256 -216 -16 -32 -29 -62 -29 -67 0
-17 59 9 126 55 88 60 131 80 200 94 54 11 68 10 128 -9 37 -12 72 -19 76 -16
14 9 43 93 37 109 -3 8 -30 26 -60 40 -65 31 -173 36 -222 10z"/>
<path d="M1690 6490 c0 -5 5 -10 10 -10 6 0 10 5 10 10 0 6 -4 10 -10 10 -5 0
-10 -4 -10 -10z"/>
<path d="M1573 6456 c-15 -13 -25 -27 -22 -30 3 -3 21 8 40 24 19 16 29 29 22
30 -7 0 -25 -11 -40 -24z"/>
<path d="M1960 6458 c-19 -12 -51 -24 -70 -27 -47 -8 -48 -37 -2 -34 35 1 126
51 124 68 -1 17 -16 15 -52 -7z"/>
<path d="M1534 6336 c-69 -71 -120 -146 -107 -160 3 -3 25 21 47 53 23 33 65
87 94 120 30 34 51 61 47 61 -4 0 -41 -33 -81 -74z"/>
<path d="M1592 6317 c-24 -25 -28 -37 -12 -37 11 0 45 48 38 55 -2 3 -14 -5
-26 -18z"/>
<path d="M2262 6285 c-56 -29 -131 -60 -167 -69 -74 -18 -207 -21 -253 -5 -49
17 -62 4 -17 -16 30 -13 65 -18 140 -18 89 1 111 4 198 36 94 34 182 82 207
113 18 21 6 16 -108 -41z"/>
<path d="M1160 6275 c-7 -9 -11 -18 -8 -20 3 -3 11 1 18 10 7 9 11 18 8 20 -3
3 -11 -1 -18 -10z"/>
<path d="M1531 6225 c-22 -46 -28 -105 -11 -105 5 0 12 17 16 38 4 20 13 54
20 75 18 52 1 47 -25 -8z"/>
<path d="M12348 6223 c-38 -42 -55 -70 -194 -308 -157 -270 -355 -657 -382
-745 -40 -131 -38 -258 4 -274 29 -11 37 5 30 66 -10 99 50 294 142 458 20 36
47 88 60 115 13 28 50 95 82 150 113 198 187 331 225 405 21 41 46 86 57 99
18 24 25 61 10 61 -5 0 -20 -12 -34 -27z"/>
<path d="M3317 6196 c-127 -56 -227 -143 -227 -198 0 -15 9 -18 48 -18 52 0
75 10 70 31 -5 20 66 36 87 19 14 -12 13 -15 -6 -36 -12 -13 -21 -25 -18 -27
19 -13 83 -37 98 -37 31 0 53 45 46 94 -6 41 -5 44 19 50 15 4 31 17 37 29 6
12 24 29 41 38 35 17 56 44 44 56 -4 4 -33 9 -64 10 -31 1 -58 6 -60 12 -6 18
-33 13 -115 -23z m-57 -75 c0 -11 -69 -55 -76 -49 -2 3 13 17 33 31 44 30 43
30 43 18z m120 -101 c0 -5 -2 -10 -4 -10 -3 0 -8 5 -11 10 -3 6 -1 10 4 10 6
0 11 -4 11 -10z"/>
<path d="M1680 6145 c-25 -15 -56 -36 -69 -48 -43 -40 -101 -118 -101 -138 0
-31 28 -22 39 14 14 40 94 122 111 112 6 -4 38 5 70 19 32 14 81 31 111 36 71
14 73 20 8 20 -30 0 -70 3 -89 5 -26 4 -46 -1 -80 -20z"/>
<path d="M917 6124 c-4 -4 -7 -17 -7 -28 1 -19 1 -20 11 -3 11 19 8 43 -4 31z"/>
<path d="M1645 6000 c-3 -5 -1 -10 4 -10 6 0 11 5 11 10 0 6 -2 10 -4 10 -3 0
-8 -4 -11 -10z"/>
<path d="M2083 5869 c-7 -7 -13 -18 -13 -23 0 -6 -10 -30 -22 -53 -31 -59 -14
-66 31 -13 l38 45 54 -18 c71 -22 119 -52 119 -74 0 -38 -12 -42 -95 -32 -79
9 -80 9 -102 -17 -19 -20 -23 -37 -23 -88 0 -54 4 -68 31 -104 31 -42 51 -51
163 -78 16 -4 31 -15 33 -24 8 -29 48 -45 90 -34 48 12 62 35 37 62 -10 11
-27 31 -36 45 -9 13 -31 27 -47 30 -37 8 -40 30 -11 87 11 22 20 42 20 45 0
11 -28 4 -40 -10 -26 -31 -29 -13 -5 31 33 61 33 123 2 152 -30 28 -129 73
-175 79 -23 3 -42 0 -49 -8z m70 -211 c2 -8 20 -13 43 -13 l39 0 -3 -52 c-3
-38 1 -57 12 -69 17 -16 21 -50 9 -57 -16 -10 -89 34 -110 66 -31 45 -32 137
-2 137 4 0 9 -6 12 -12z m202 -228 c7 -12 -12 -12 -40 0 -18 8 -17 9 7 9 15 1
30 -3 33 -9z"/>
<path d="M1586 5771 c-4 -7 -5 -15 -2 -18 9 -9 19 4 14 18 -4 11 -6 11 -12 0z"/>
<path d="M3806 5643 c-112 -83 -138 -122 -101 -153 17 -14 16 -14 103 63 23
21 53 42 67 47 34 13 33 47 -1 60 -32 13 -25 14 -68 -17z"/>
<path d="M1218 5634 c-17 -42 -17 -317 0 -367 8 -21 16 -36 18 -34 3 2 0 53
-6 113 -6 71 -7 144 -1 209 6 55 8 101 6 104 -3 2 -10 -9 -17 -25z"/>
<path d="M1805 5600 c-41 -81 -86 -213 -76 -223 13 -13 36 26 87 150 49 121
50 123 29 123 -8 0 -26 -22 -40 -50z"/>
<path d="M3601 5637 c-6 -8 -17 -30 -26 -50 -17 -42 -10 -70 26 -103 49 -45
103 -36 61 9 -34 38 -42 63 -36 111 7 47 -3 59 -25 33z"/>
<path d="M1452 5547 c-22 -26 -42 -100 -42 -151 0 -92 41 -226 69 -226 5 0 0
30 -11 68 -22 79 -27 220 -9 275 14 41 11 56 -7 34z"/>
<path d="M1334 5448 c-22 -74 -26 -280 -6 -313 9 -16 11 3 12 102 0 107 4 149
26 251 2 12 0 22 -4 22 -5 0 -18 -28 -28 -62z"/>
<path d="M1847 5503 c-2 -5 -10 -26 -17 -48 -7 -22 -28 -70 -47 -107 -34 -65
-37 -93 -8 -82 44 17 124 244 86 244 -6 0 -12 -3 -14 -7z"/>
<path d="M1546 5344 c-4 -9 -4 -19 -1 -22 2 -3 7 3 11 12 4 9 4 19 1 22 -2 3
-7 -3 -11 -12z"/>
<path d="M1623 5338 c-20 -25 -44 -80 -40 -91 2 -7 16 12 31 41 26 51 31 77 9
50z"/>
<path d="M10837 5319 c-44 -62 81 -255 255 -393 81 -64 259 -180 420 -273 72
-41 81 -44 95 -30 8 8 13 20 9 25 -3 6 -90 63 -193 128 -234 148 -328 217
-422 312 -76 77 -125 161 -120 204 4 25 -7 48 -21 48 -5 0 -15 -9 -23 -21z"/>
<path d="M1537 5303 c-4 -3 -7 -11 -7 -17 0 -6 5 -5 12 2 6 6 9 14 7 17 -3 3
-9 2 -12 -2z"/>
<path d="M12222 5128 c-5 -7 -55 -98 -110 -203 -55 -104 -125 -235 -156 -290
-58 -103 -66 -140 -31 -140 15 0 33 24 73 100 156 291 260 521 244 537 -5 5
-14 3 -20 -4z"/>
<path d="M11847 4963 c-4 -3 -7 -20 -7 -37 0 -48 -33 -153 -74 -233 -58 -115
-89 -219 -84 -280 6 -68 36 -110 114 -161 51 -34 67 -51 89 -98 43 -91 39
-133 -33 -314 -66 -168 -87 -261 -76 -349 8 -72 28 -117 96 -216 30 -44 60
-93 66 -110 24 -59 42 -188 42 -296 0 -92 2 -108 15 -103 8 4 18 18 22 33 3
14 13 36 21 49 11 16 14 49 13 125 -3 141 -14 184 -82 323 -32 67 -72 162 -88
210 -25 76 -28 96 -21 140 12 73 33 139 71 219 79 167 36 377 -93 443 -54 28
-78 66 -78 122 0 55 44 201 81 268 55 99 75 224 41 255 -20 19 -26 20 -35 10z"/>
<path d="M2918 3495 l-32 -46 -38 40 c-24 27 -42 39 -52 35 -21 -8 -21 -7 19
-103 43 -104 60 -131 85 -131 30 0 32 16 10 59 -25 50 -25 54 0 41 17 -9 22
-7 30 15 6 15 10 32 10 38 0 7 7 21 15 31 20 26 19 66 0 66 -9 0 -30 -20 -47
-45z"/>
<path d="M1255 3186 c-67 -21 -86 -35 -190 -135 -55 -53 -144 -136 -198 -185
-103 -93 -137 -140 -117 -160 9 -8 16 -6 28 9 9 11 58 54 107 95 50 41 138
119 197 174 121 112 152 135 205 146 46 11 130 -17 281 -92 85 -42 121 -68
180 -126 50 -49 78 -70 85 -63 28 28 -74 156 -175 217 -75 46 -263 121 -319
128 -25 3 -62 0 -84 -8z"/>
<path d="M1732 2788 c-16 -16 -15 -28 6 -51 13 -14 17 -37 18 -96 0 -70 2 -76
22 -79 11 -2 30 6 41 17 32 32 28 96 -10 157 -41 65 -55 74 -77 52z"/>
<path d="M77 2783 c-15 -14 -4 -24 66 -59 117 -59 176 -101 273 -195 51 -49
97 -89 103 -89 25 0 132 -254 210 -500 22 -69 61 -207 86 -308 l47 -182 -22
-18 c-19 -15 -23 -29 -24 -83 l-1 -64 -37 3 c-21 2 -38 -1 -38 -7 0 -5 19 -11
43 -13 l42 -3 3 -45 c1 -25 14 -106 29 -180 14 -74 31 -175 37 -225 11 -81 14
-90 34 -93 41 -6 40 20 -6 293 -32 186 -39 245 -31 245 5 0 6 14 3 30 -6 25
-3 30 14 30 38 0 44 22 23 91 -22 74 -48 170 -96 354 -64 245 -164 543 -218
651 -38 76 -104 144 -140 144 -12 0 -48 23 -82 53 -130 115 -289 200 -318 170z"/>
<path d="M356 2049 c-30 -23 -33 -50 -10 -73 19 -19 34 -12 34 15 0 27 12 24
47 -13 42 -45 105 -165 143 -273 17 -49 46 -116 65 -148 19 -32 35 -64 35 -71
0 -39 55 -48 72 -11 9 19 8 29 -6 50 -9 14 -23 25 -30 25 -27 0 -65 61 -96
157 -42 125 -110 273 -150 323 -36 46 -64 51 -104 19z"/>
<path d="M2410 1765 c-16 -19 -4 -35 28 -36 27 0 27 0 5 -11 -25 -12 -30 -32
-11 -45 7 -4 38 -17 68 -28 30 -11 53 -25 50 -30 -6 -11 -35 -12 -65 -1 -20 8
-20 7 -1 -8 11 -9 36 -16 56 -16 20 0 42 -6 48 -12 10 -10 18 -6 37 17 13 17
24 37 25 45 0 24 -79 96 -130 119 -53 24 -93 27 -110 6z m140 -75 c8 -5 11
-10 5 -10 -5 0 -17 5 -25 10 -8 5 -10 10 -5 10 6 0 17 -5 25 -10z"/>
<path d="M4175 1305 c-85 -26 -217 -97 -380 -204 -93 -62 -203 -128 -243 -148
-66 -32 -73 -38 -70 -61 2 -21 -1 -27 -14 -26 -21 2 -25 -31 -4 -39 7 -3 16
-19 19 -35 4 -20 18 -36 41 -50 20 -12 36 -26 36 -32 0 -20 56 -10 79 14 19
21 22 32 19 101 -2 63 -7 80 -21 89 -15 9 -22 7 -34 -11 -8 -12 -21 -19 -29
-16 -20 7 -17 21 5 28 21 6 186 106 311 187 108 70 231 139 292 164 44 17 60
36 41 47 -5 3 -26 -1 -48 -8z m-555 -455 c0 -5 -2 -10 -4 -10 -3 0 -8 5 -11
10 -3 6 -1 10 4 10 6 0 11 -4 11 -10z m-50 -19 c0 -12 -26 -32 -33 -25 -9 10
4 34 19 34 8 0 14 -4 14 -9z m60 -55 c0 -16 -18 -31 -27 -22 -8 8 5 36 17 36
5 0 10 -6 10 -14z"/>
<path d="M1247 1142 c-96 -13 -129 -14 -175 -4 -50 11 -58 10 -69 -5 -18 -23
-1 -39 55 -53 50 -11 103 -6 242 24 82 18 102 26 97 40 -5 15 -16 15 -150 -2z"/>
<path d="M963 974 c-6 -16 30 -53 51 -54 4 0 60 -24 125 -54 316 -147 400
-185 449 -201 29 -9 121 -23 205 -30 84 -7 161 -15 172 -17 16 -2 20 3 20 22
l0 25 -160 11 c-88 6 -178 16 -201 22 -22 7 -137 59 -255 118 -208 103 -367
174 -389 174 -6 0 -13 -7 -17 -16z"/>
<path d="M3407 698 c-14 -49 -6 -95 27 -163 18 -39 39 -87 45 -108 13 -39 42
-62 67 -53 19 7 18 28 -5 68 -10 18 -38 83 -61 143 -50 126 -64 149 -73 113z"/>
</g>
</svg>
