<?xml version="1.0" standalone="no"?>
<!DOCTYPE svg PUBLIC "-//W3C//DTD SVG 20010904//EN"
 "http://www.w3.org/TR/2001/REC-SVG-20010904/DTD/svg10.dtd">
<svg version="1.0" xmlns="http://www.w3.org/2000/svg"
 width="1280.000000pt" height="1280.000000pt" viewBox="0 0 1280.000000 1280.000000"
 preserveAspectRatio="xMidYMid meet">
<metadata>
Created by potrace 1.15, written by Peter Selinger 2001-2017
</metadata>
<g transform="translate(0.000000,1280.000000) scale(0.100000,-0.100000)"
fill="#000000" stroke="none">
<path d="M6095 12794 c-903 -48 -1763 -273 -2547 -665 -691 -345 -1293 -795
-1831 -1366 l-97 -103 -295 0 c-282 0 -296 -1 -315 -20 -19 -19 -20 -33 -20
-420 l0 -401 -34 -53 c-128 -200 -341 -610 -445 -856 -264 -626 -420 -1251
-488 -1955 -24 -252 -24 -847 0 -1105 92 -982 382 -1888 867 -2704 l100 -168
0 -1467 c0 -1311 2 -1469 16 -1489 l15 -22 5379 0 c4876 0 5380 1 5394 16 14
14 16 163 16 1488 l0 1474 100 168 c485 816 775 1722 867 2704 24 258 24 853
0 1105 -68 704 -224 1329 -488 1955 -104 246 -317 656 -445 856 l-34 53 0 405
0 405 -22 15 c-19 14 -66 16 -315 16 l-293 0 -97 103 c-1100 1168 -2524 1864
-4118 2012 -162 15 -716 27 -870 19z m670 -94 c648 -42 1249 -166 1820 -378
884 -328 1702 -861 2342 -1526 l126 -131 -2326 -3 c-1280 -1 -3374 -1 -4654 0
l-2327 3 128 132 c649 670 1458 1197 2341 1525 560 207 1173 336 1795 377 185
12 573 12 755 1z m-5242 -2153 c-10 -13 -66 -84 -125 -157 -59 -73 -151 -195
-204 -269 -53 -75 -101 -140 -105 -145 -5 -6 -9 120 -9 292 l0 302 231 0 231
0 -19 -23z m9630 5 c16 -18 14 -18 -66 -14 -106 5 -158 -9 -303 -84 -175 -92
-243 -124 -287 -136 -35 -9 -48 -21 -77 -66 -50 -77 -149 -173 -230 -222 -142
-86 -273 -125 -630 -190 -124 -22 -265 -52 -315 -66 -162 -46 -330 -136 -359
-193 -25 -47 -107 -120 -172 -152 -40 -20 -107 -39 -190 -55 -232 -45 -308
-65 -374 -101 -108 -58 -141 -64 -425 -73 -276 -8 -315 -15 -391 -62 -153 -97
-331 -182 -452 -216 l-71 -20 -56 54 c-42 39 -56 60 -53 76 4 33 37 34 98 2
49 -25 53 -26 83 -12 18 9 39 28 47 44 8 16 39 56 68 89 71 80 127 167 142
221 11 37 18 46 41 51 15 3 35 13 44 23 15 16 14 22 -9 79 -30 69 -32 89 -12
116 14 19 15 19 33 2 35 -31 53 -22 53 26 0 24 -6 49 -12 56 -8 7 -13 42 -13
94 0 74 -2 83 -22 91 -17 8 -20 16 -16 40 4 24 -2 40 -26 70 -36 45 -48 83
-32 99 37 37 -9 77 -92 77 -60 0 -60 0 -71 52 -4 19 -23 37 -67 64 -48 29 -65
46 -79 80 -23 52 -74 89 -148 105 -44 9 -81 8 -197 -7 l-144 -18 -34 25 c-34
23 -40 24 -213 24 -155 0 -184 -2 -214 -19 -56 -29 -98 -74 -165 -177 -74
-114 -108 -141 -182 -147 -44 -4 -58 -10 -78 -34 l-25 -30 25 -30 c42 -50 31
-90 -44 -169 -28 -30 -51 -61 -51 -69 0 -9 13 -34 30 -56 34 -45 35 -52 15
-74 -22 -25 -24 -210 -1 -245 9 -14 23 -25 31 -25 23 0 27 -18 11 -47 -13 -25
-12 -32 9 -73 12 -25 30 -69 39 -97 20 -59 55 -93 97 -93 21 0 27 -4 23 -14
-3 -9 12 -33 35 -59 45 -49 49 -65 23 -95 -17 -21 -17 -21 -96 43 -71 57 -89
66 -185 94 -210 61 -419 76 -577 41 -49 -11 -53 -10 -129 29 -133 69 -276 109
-545 155 l-145 25 -70 78 c-133 147 -179 189 -230 208 -28 10 -68 31 -90 45
-139 93 -288 137 -659 195 -215 34 -291 50 -418 91 -127 42 -158 70 -227 204
-66 128 -96 159 -171 180 -25 7 -41 20 -54 44 -29 54 -80 71 -206 70 -58 -1
-125 -5 -150 -8 -27 -4 -68 -2 -102 6 l-57 13 35 43 36 42 4737 0 c4569 0
4738 -1 4754 -18z m567 -284 c0 -172 -4 -298 -9 -292 -4 5 -52 70 -105 145
-53 74 -145 196 -204 269 -59 73 -115 144 -125 157 l-19 23 231 0 231 0 0
-302z m-409 95 c126 -158 225 -292 322 -436 l87 -129 0 -3397 0 -3397 -98
-145 c-609 -899 -1435 -1620 -2422 -2114 -338 -169 -825 -353 -1165 -440
l-110 -28 -45 31 c-63 45 -153 62 -330 62 -127 0 -152 3 -200 23 -72 30 -134
72 -246 169 -89 77 -92 81 -117 156 -61 184 -80 400 -65 726 16 347 14 501 -5
626 -10 63 -20 204 -24 313 -6 188 -5 200 15 245 12 26 28 87 37 136 8 49 24
106 35 128 17 32 18 45 10 81 -14 62 -12 173 5 247 17 72 32 112 110 310 30
74 61 172 71 218 16 75 19 81 34 67 26 -24 104 -180 159 -318 70 -178 131
-292 196 -364 30 -33 55 -69 55 -80 0 -47 65 -328 100 -437 70 -215 161 -374
293 -513 64 -68 77 -87 97 -152 40 -125 134 -266 296 -441 299 -322 389 -469
402 -658 5 -73 5 -75 57 -127 95 -97 156 -84 308 65 124 124 162 145 253 144
69 -1 71 -1 92 33 28 42 68 67 152 94 91 30 133 53 163 89 31 36 57 116 57
173 0 52 -27 109 -49 103 -40 -13 -307 -70 -405 -87 -135 -24 -213 -25 -246
-3 -56 38 -124 114 -191 216 -69 104 -72 112 -130 311 -96 336 -172 539 -290
777 -84 168 -195 345 -266 424 -81 90 -125 201 -193 478 -33 139 -74 248 -115
310 -19 29 -32 70 -45 146 -85 493 -245 966 -471 1399 -75 145 -79 155 -79
218 0 88 -22 180 -77 323 -121 313 -127 336 -127 462 0 79 5 128 16 155 14 38
14 41 -6 68 -17 24 -22 48 -26 145 -3 64 -11 127 -18 139 -10 18 -7 31 18 85
37 80 74 210 90 313 27 175 63 371 72 388 5 10 29 79 53 154 63 192 105 252
219 310 66 34 167 40 297 19 102 -17 105 -16 229 27 25 9 130 11 385 9 275 -2
363 1 409 12 53 13 69 12 135 -1 52 -11 130 -16 246 -16 150 0 200 5 430 41
269 42 438 62 537 62 45 0 65 5 95 26 37 25 41 26 128 19 184 -16 819 11 868
37 21 11 21 28 2 75 -8 20 -14 38 -12 39 2 2 33 17 70 34 70 31 84 54 52 80
-14 12 -14 15 0 31 9 9 30 23 46 29 39 17 37 45 -6 84 -19 18 -35 42 -35 54 0
42 -134 91 -271 99 -144 9 -542 -40 -584 -72 -52 -39 -154 -86 -234 -107 -101
-27 -331 -29 -566 -3 -200 22 -445 24 -528 6 -32 -7 -84 -25 -115 -39 -52 -25
-67 -27 -182 -27 -108 0 -142 4 -250 32 -69 18 -166 39 -215 46 l-90 14 61 59
c111 108 231 154 534 204 329 55 419 87 593 213 142 102 174 121 412 245 205
106 269 143 369 209 26 18 60 33 75 33 39 0 144 36 210 72 31 17 90 66 133
109 70 73 79 79 117 79 28 0 58 11 100 35 68 40 91 67 91 108 0 23 -7 31 -35
43 -19 8 -35 19 -35 24 0 5 32 26 70 45 71 36 92 61 82 97 -2 11 -14 18 -27
18 -13 0 -25 6 -28 13 -4 13 24 97 33 97 3 0 44 -48 91 -107z m-5301 88 c-8
-5 -26 -12 -40 -15 l-25 -7 25 15 c14 9 32 15 40 15 13 0 13 -1 0 -8z m4960
-2 c-8 -5 -62 -34 -120 -63 -112 -57 -195 -115 -230 -159 -19 -24 -20 -27 -4
-27 10 0 59 15 110 32 51 18 96 29 101 25 15 -16 -45 -54 -113 -71 -82 -21
-94 -29 -94 -67 0 -25 4 -28 37 -31 25 -2 39 -8 41 -19 4 -23 -33 -37 -196
-76 -16 -4 -28 2 -43 21 -17 21 -24 24 -40 16 -27 -15 -51 -66 -47 -103 2 -26
10 -36 42 -51 33 -16 46 -17 102 -8 54 9 73 19 136 68 40 31 90 73 111 93 34
32 37 33 37 14 0 -12 8 -26 18 -32 16 -9 16 -12 -2 -45 -26 -49 -73 -82 -170
-122 -44 -19 -89 -38 -98 -44 -12 -7 -25 -6 -42 1 -22 10 -31 6 -83 -33 -95
-73 -255 -168 -473 -283 -258 -135 -340 -182 -463 -262 -55 -36 -124 -73 -154
-84 -53 -18 -200 -41 -351 -55 -132 -11 -173 -27 -369 -137 -197 -111 -310
-167 -380 -187 -40 -12 -45 -11 -129 29 -107 52 -241 97 -341 117 -82 15 -233
18 -302 5 -26 -5 -57 -5 -80 2 -83 23 -277 5 -406 -38 -11 -4 37 25 107 64
132 73 253 121 309 121 31 0 31 1 15 19 -16 18 -14 19 51 40 87 28 198 40 295
32 110 -9 112 -15 22 -82 -33 -24 -54 -47 -54 -59 0 -24 13 -26 31 -4 23 28
129 95 203 130 79 36 242 87 424 134 305 77 452 150 593 293 129 130 243 171
674 242 292 47 408 79 540 148 92 48 193 142 249 230 21 32 43 60 49 61 57 16
118 45 189 88 174 107 217 127 278 127 27 1 32 -2 20 -10z m-8888 -104 c57
-60 93 -89 119 -96 29 -9 41 -20 56 -53 48 -107 153 -206 288 -271 142 -70
308 -104 575 -120 76 -5 113 -12 135 -25 17 -11 105 -47 195 -81 192 -72 224
-87 306 -144 53 -38 144 -138 144 -159 0 -5 -13 -25 -30 -46 -16 -20 -27 -40
-23 -44 11 -11 78 -7 91 6 7 7 12 20 12 30 0 15 7 14 50 -13 40 -24 66 -32
139 -39 173 -18 295 -55 476 -145 123 -61 384 -228 392 -250 3 -11 -273 -85
-316 -85 -68 0 -337 140 -580 302 -80 53 -147 93 -149 87 -6 -16 38 -77 89
-123 27 -24 93 -71 147 -105 107 -66 153 -100 136 -101 -26 0 -130 37 -264 95
-185 80 -296 115 -385 122 -38 3 -94 14 -124 25 -30 10 -120 34 -201 53 -80
18 -173 44 -205 57 -92 38 -228 134 -365 259 -147 134 -207 180 -284 215 -104
47 -145 12 -51 -45 96 -59 71 -54 -47 8 -62 32 -140 67 -173 77 -93 28 -125
66 -65 78 17 3 42 18 57 32 l27 27 -60 27 c-50 22 -74 43 -137 118 -59 69 -90
97 -128 114 -38 18 -49 27 -44 41 3 9 8 26 11 36 4 14 -6 27 -43 52 -26 18
-73 54 -103 80 -30 25 -66 52 -78 59 -13 6 -21 14 -19 17 9 8 58 -22 167 -102
58 -42 118 -84 134 -92 26 -14 30 -13 49 5 14 14 22 38 25 76 l4 54 -38 20
c-22 11 -54 23 -72 27 -47 10 -29 25 29 25 50 0 51 0 131 -85z m4691 54 c26
-17 49 -34 51 -38 3 -4 -20 -4 -51 -1 -55 6 -83 25 -83 57 0 22 34 15 83 -18z
m-5198 -23 c22 -19 38 -36 35 -38 -3 -1 -18 -10 -35 -18 -43 -22 -42 -49 4
-126 46 -75 48 -86 25 -108 -14 -15 -13 -19 6 -46 47 -67 150 -132 295 -190
61 -24 102 -46 115 -63 30 -38 93 -72 180 -96 161 -46 182 -54 233 -92 29 -22
63 -42 77 -46 55 -13 181 -85 295 -168 335 -243 446 -295 624 -295 59 0 81 -6
146 -37 61 -29 92 -37 153 -41 59 -3 91 -12 135 -34 32 -16 133 -54 225 -84
146 -49 309 -120 299 -130 -2 -2 -84 -20 -183 -39 -98 -20 -206 -44 -240 -55
l-61 -20 -47 26 c-104 58 -162 66 -516 74 -179 4 -343 12 -364 18 -22 6 -60 9
-85 6 -25 -2 -116 -11 -201 -20 -363 -37 -536 -12 -681 99 -34 25 -58 35 -99
39 -30 4 -102 23 -160 44 -90 31 -118 37 -196 38 -83 1 -94 -1 -132 -27 -37
-24 -41 -30 -32 -47 13 -24 75 -57 127 -68 l38 -8 -35 -23 c-33 -21 -42 -22
-166 -16 -150 8 -192 -3 -221 -58 -15 -29 -14 -32 7 -49 12 -10 30 -18 40 -18
28 0 43 -25 25 -40 -8 -7 -15 -28 -15 -46 0 -40 24 -59 90 -69 64 -10 81 -21
75 -48 -5 -17 2 -28 27 -47 29 -21 41 -24 118 -21 47 1 157 -7 245 -19 289
-38 360 -42 400 -26 58 25 173 36 265 26 134 -13 219 -31 274 -55 242 -107
467 -125 991 -80 371 32 590 33 695 4 62 -18 118 -23 330 -29 262 -8 349 -21
412 -58 37 -22 84 -93 132 -205 21 -48 55 -106 76 -130 33 -38 38 -50 44 -115
15 -165 61 -326 179 -624 l67 -167 -26 -98 c-15 -54 -37 -138 -50 -187 -18
-66 -24 -114 -24 -191 0 -98 -2 -106 -39 -186 -39 -82 -67 -180 -130 -446 -48
-202 -104 -322 -203 -429 -35 -38 -52 -74 -174 -356 -18 -42 -40 -91 -50 -110
-36 -69 -104 -265 -125 -357 -15 -69 -22 -137 -24 -241 -3 -184 -7 -192 -160
-335 -103 -96 -155 -161 -155 -195 0 -7 -47 -62 -105 -123 -345 -368 -566
-804 -721 -1422 -42 -167 -134 -609 -134 -643 0 -27 -93 -156 -160 -222 -77
-77 -155 -119 -235 -127 -48 -5 -58 -10 -66 -30 -22 -59 -2 -115 58 -155 96
-64 188 -124 212 -138 220 -125 267 -142 322 -116 27 12 38 27 52 65 20 58 41
204 32 231 -4 12 6 37 29 69 44 64 61 117 86 266 33 193 49 227 237 513 65 98
126 192 135 208 10 16 41 56 68 89 73 86 138 204 236 431 155 359 159 365 451
706 235 275 342 420 424 576 26 50 34 60 40 45 3 -10 23 -103 43 -207 21 -103
51 -226 67 -273 l30 -84 -46 -382 c-41 -338 -51 -394 -81 -483 -91 -270 -84
-537 26 -1036 46 -206 68 -264 166 -439 132 -234 161 -325 150 -465 -5 -64 -2
-90 10 -120 15 -35 15 -51 4 -150 -13 -108 -12 -113 9 -156 12 -25 38 -57 59
-72 l37 -27 -40 5 c-22 3 -87 10 -145 16 -856 88 -1777 397 -2532 851 -797
479 -1476 1119 -1990 1878 l-98 145 0 3397 0 3397 86 129 c116 172 350 483
364 483 3 0 23 -16 45 -34z m5065 -5 c0 -5 -7 -12 -16 -15 -24 -9 -28 -7 -14
9 14 17 30 20 30 6z m-4954 -152 c9 -10 14 -22 11 -25 -10 -11 -82 30 -85 48
-3 15 1 16 26 7 17 -6 38 -19 48 -30z m4895 -5 c38 -22 69 -76 69 -119 0 -23
14 -48 55 -95 63 -74 71 -112 32 -149 -22 -19 -25 -33 -30 -139 -11 -190 -53
-309 -141 -397 -51 -51 -51 -51 -146 -63 -108 -14 -188 -6 -220 23 -16 14 -20
30 -19 67 2 44 3 46 16 28 12 -17 26 -20 94 -20 44 0 90 -5 101 -11 16 -9 24
-8 36 5 15 14 13 18 -13 46 l-29 30 35 0 c43 0 72 20 68 45 -6 27 -84 54 -124
43 -16 -4 -63 -8 -103 -8 -40 0 -83 -5 -94 -11 -19 -10 -20 -9 -14 14 4 16 1
29 -9 37 -12 10 -23 6 -59 -24 -24 -20 -47 -36 -50 -36 -3 0 2 16 10 35 18 45
18 70 -2 90 -18 17 -14 18 -80 -31 l-29 -22 0 72 c-1 51 -9 95 -29 156 l-29
84 21 37 c12 20 35 72 52 115 71 178 104 207 238 206 48 -1 119 3 157 8 104
12 198 6 236 -16z m347 -1 c-5 -49 -57 -40 -58 10 0 12 8 17 31 17 27 0 30 -3
27 -27z m177 -110 c-7 -16 -18 -40 -24 -55 -19 -49 -73 -28 -73 27 0 39 20 55
68 55 l43 0 -14 -27z m-5339 -64 c22 -11 59 -35 83 -55 40 -35 43 -36 61 -19
20 18 20 17 20 -23 0 -23 -1 -42 -2 -42 -2 0 -46 21 -98 46 -86 41 -160 95
-160 116 0 11 46 0 96 -23z m5384 -78 c0 -5 -7 -14 -15 -21 -8 -7 -15 -10 -15
-7 0 3 -3 12 -6 21 -4 12 0 16 15 16 12 0 21 -4 21 -9z m-75 -121 c3 -5 1 -10
-4 -10 -6 0 -11 5 -11 10 0 6 2 10 4 10 3 0 8 -4 11 -10z m115 -80 c0 -40 -4
-70 -10 -70 -6 0 -10 30 -10 70 0 40 4 70 10 70 6 0 10 -30 10 -70z m-133 -77
c-3 -10 -5 -4 -5 12 0 17 2 24 5 18 2 -7 2 -21 0 -30z m-6069 -4899 l-3 -1627
-82 144 c-876 1550 -1053 3404 -486 5109 111 336 290 739 481 1082 l87 157 3
-1619 c1 -890 1 -2351 0 -3246z m10903 4729 c181 -319 377 -759 493 -1103 531
-1581 409 -3335 -335 -4822 -75 -150 -193 -366 -225 -413 -12 -16 -14 478 -14
3223 0 1783 2 3242 4 3242 3 0 37 -57 77 -127z m-4724 -9 c-12 -13 -37 6 -37
28 l0 22 22 -21 c12 -13 19 -25 15 -29z m-1112 -367 c0 -33 11 -60 44 -115 44
-74 62 -85 80 -54 20 32 41 -13 41 -85 0 -92 38 -153 96 -153 29 0 117 95 151
164 l27 56 -23 24 c-32 34 -52 22 -87 -51 -28 -59 -51 -93 -64 -93 -11 0 -28
46 -46 124 -8 39 -20 78 -25 88 -11 20 -6 22 115 38 45 6 95 19 114 30 18 11
34 20 35 20 1 0 1 -51 -1 -114 l-4 -114 49 -46 c51 -50 78 -55 97 -21 6 11 11
21 11 22 0 1 25 -5 55 -13 30 -8 69 -12 85 -8 20 4 27 3 20 -4 -5 -6 -45 -18
-87 -27 -54 -12 -75 -21 -72 -30 8 -21 95 -27 143 -10 67 23 266 62 388 75
144 16 436 8 563 -15 101 -18 237 -55 298 -81 l37 -15 -101 -53 c-114 -61
-232 -134 -337 -208 -100 -70 -247 -190 -247 -200 0 -16 55 -7 80 12 14 11 30
20 37 20 7 0 42 22 78 50 156 118 345 220 506 273 233 77 557 74 749 -6 29
-13 43 -12 118 5 139 31 336 57 520 70 190 13 440 2 606 -28 82 -14 98 -14
194 1 163 26 305 76 380 136 25 19 102 27 102 11 0 -20 61 -35 150 -37 76 -2
107 -8 154 -27 57 -24 58 -26 37 -38 -31 -16 -103 -14 -171 5 -30 8 -71 15
-90 15 -35 0 -100 -32 -100 -49 0 -16 59 -53 71 -45 7 4 10 1 7 -7 -4 -16
-104 -68 -130 -69 -9 0 -32 21 -49 48 -55 79 -83 90 -118 46 -30 -38 -26 -66
14 -107 85 -88 251 -63 349 54 l26 31 235 -13 c129 -7 232 -15 229 -18 -14
-14 -154 -47 -166 -40 -27 18 -94 9 -148 -18 -30 -16 -56 -34 -58 -41 -8 -26
67 -44 165 -40 51 1 93 0 93 -4 0 -5 -7 -8 -16 -8 -21 0 -253 -29 -281 -35
l-22 -5 20 34 c23 40 22 84 -3 100 -15 9 -21 6 -35 -14 -27 -40 -82 -89 -127
-113 -34 -18 -58 -22 -141 -22 l-100 0 -3 47 c-2 37 -8 51 -24 59 -19 10 -24
8 -42 -17 -34 -48 -68 -76 -122 -100 -74 -35 -138 -44 -308 -45 -160 0 -168
-1 -371 -44 -217 -45 -473 -49 -655 -9 -73 15 -78 15 -141 -4 -101 -31 -179
-35 -339 -18 -263 29 -405 19 -511 -34 -35 -18 -41 -19 -110 -4 -109 23 -250
20 -330 -6 -52 -17 -76 -34 -131 -88 -56 -54 -68 -63 -68 -45 0 12 11 35 25
51 29 35 31 45 9 62 -13 11 -24 4 -78 -49 -57 -57 -66 -62 -85 -51 -35 18 -57
4 -126 -80 -36 -42 -75 -84 -88 -93 -44 -28 -221 -60 -311 -55 -102 6 -139 24
-231 117 -38 39 -75 71 -82 71 -22 0 -24 -38 -4 -78 29 -57 88 -105 187 -153
81 -39 95 -42 157 -40 163 5 293 45 371 113 l39 34 53 -28 c28 -16 56 -34 62
-41 19 -24 -173 -867 -200 -876 -18 -6 -58 -48 -58 -61 0 -6 11 -21 25 -34 34
-32 45 -67 45 -150 0 -48 5 -79 15 -92 19 -25 19 -120 1 -218 -22 -111 -24
-113 -93 -108 -49 3 -63 0 -86 -18 -34 -27 -33 -61 3 -74 20 -6 42 -2 90 17
35 15 65 25 66 24 1 -1 12 -238 24 -527 30 -706 23 -1351 -16 -1668 l-7 -54
-64 64 c-92 90 -193 246 -290 448 -140 289 -166 340 -175 340 -13 0 0 -79 29
-180 53 -185 182 -407 380 -652 97 -120 103 -131 103 -173 0 -77 -28 -187
-100 -396 -82 -237 -103 -333 -99 -472 2 -80 -3 -128 -23 -223 -15 -66 -34
-137 -44 -157 -16 -33 -16 -48 -5 -174 18 -196 25 -821 13 -1132 l-10 -264 28
-116 c57 -233 112 -351 216 -460 71 -76 143 -119 262 -158 66 -22 99 -26 237
-29 145 -3 239 -16 250 -33 2 -4 -35 -15 -82 -25 l-85 -18 -15 22 -15 22 -33
-32 c-28 -27 -45 -33 -129 -47 -89 -15 -104 -15 -189 0 -53 10 -146 17 -215
17 -96 0 -132 4 -173 19 l-51 20 -36 -39 c-45 -46 -103 -59 -182 -40 -57 14
-70 30 -70 89 0 30 -6 44 -23 58 l-23 17 30 59 c47 90 42 159 -23 361 -28 87
-51 171 -51 187 0 15 -18 114 -40 221 -22 106 -40 198 -40 204 0 6 13 17 29
24 l29 11 -53 85 c-105 167 -148 328 -148 559 0 181 13 279 79 610 87 432 88
438 88 690 1 218 -1 236 -27 345 -15 63 -35 153 -43 200 -21 118 -29 454 -15
625 6 77 14 175 18 218 l6 77 -26 0 c-31 0 -47 -39 -47 -119 0 -83 -33 -292
-79 -496 -88 -394 -107 -585 -81 -809 14 -123 12 -132 -51 -219 -24 -33 -27
-46 -23 -81 5 -32 -2 -65 -30 -147 -27 -77 -36 -119 -35 -160 1 -36 -6 -74
-21 -114 -31 -81 -31 -221 -1 -360 72 -326 73 -336 69 -450 -3 -80 -11 -128
-28 -177 l-23 -67 26 -63 c38 -91 46 -147 57 -388 12 -272 32 -351 115 -450
l36 -43 -32 -33 -31 -32 39 -49 c22 -26 62 -84 88 -128 27 -44 73 -105 103
-137 50 -52 53 -59 50 -100 -3 -39 -6 -43 -31 -46 -38 -5 -68 17 -106 77 -18
28 -39 51 -47 51 -14 0 -34 -59 -34 -103 0 -47 -36 -16 -61 54 -12 34 -29 63
-37 67 -24 9 -55 -37 -48 -70 8 -43 -12 -33 -36 17 -20 41 -25 45 -50 40 -19
-5 -33 -1 -43 9 -21 20 -65 2 -65 -27 0 -20 -1 -19 -25 3 -31 29 -32 65 -5
143 25 71 25 98 0 130 -16 20 -20 40 -20 106 0 162 -36 278 -178 576 -108 227
-138 313 -163 465 -10 63 -28 149 -40 190 -18 61 -22 103 -22 225 -1 171 8
233 83 545 65 272 82 380 84 525 1 95 3 110 9 75 14 -76 38 -130 63 -147 14
-9 28 -13 31 -9 11 11 -15 226 -38 306 -11 41 -33 98 -48 125 -15 28 -32 59
-38 70 -17 32 -73 403 -73 486 0 141 9 156 192 335 299 292 387 392 439 495
12 24 24 46 26 48 1 2 12 -8 24 -23 37 -48 74 -59 201 -64 161 -6 180 -1 244
63 30 30 54 62 54 72 0 29 -38 83 -58 83 -20 0 -56 -33 -47 -42 3 -3 8 -15 10
-27 3 -17 0 -21 -14 -16 -11 3 -40 -10 -78 -35 -38 -26 -66 -38 -76 -34 -10 3
-17 9 -17 13 0 4 -6 16 -14 26 -13 18 -15 18 -46 -8 -17 -15 -36 -27 -41 -27
-38 0 -79 56 -79 107 0 15 8 49 17 76 16 43 16 49 1 63 -15 15 -20 10 -70 -60
-29 -42 -81 -127 -114 -189 -60 -108 -72 -122 -310 -368 -137 -141 -252 -257
-255 -258 -14 -3 -46 619 -54 1059 -8 377 3 590 33 670 11 30 35 93 53 140 17
47 33 91 35 98 3 9 21 3 65 -19 45 -24 66 -30 77 -22 30 18 23 33 -42 94 -95
88 -96 94 -51 313 22 111 46 200 63 235 14 31 26 58 25 61 -1 3 -27 61 -58
129 -101 225 -180 493 -200 680 -5 48 -3 66 7 72 26 17 108 8 214 -23 150 -43
225 -43 314 0 39 19 113 42 184 57 137 28 197 58 225 113 32 64 34 89 9 106
-33 24 -41 20 -68 -37 -21 -43 -35 -56 -79 -78 -29 -15 -81 -32 -115 -38 -33
-7 -105 -26 -159 -43 -86 -27 -108 -30 -176 -25 -83 5 -186 40 -256 86 -63 42
-144 148 -230 302 -96 172 -135 215 -302 328 -114 77 -209 164 -198 181 8 12
116 49 188 64 67 14 68 14 92 -10 31 -31 49 -30 142 7 114 45 189 44 362 -5
105 -30 144 -37 179 -32 55 7 105 44 131 95 l20 38 -22 23 c-12 12 -16 19 -9
15 16 -8 62 31 62 53 0 12 3 12 15 2 14 -12 14 -15 0 -30 -8 -9 -15 -24 -15
-32 0 -23 91 -78 128 -78 26 0 33 -5 38 -27 15 -69 31 -107 51 -120 20 -13 23
-12 38 11 16 25 16 30 -1 91 -15 52 -32 80 -81 137 -64 75 -77 105 -88 211 -6
55 -5 58 12 49 13 -8 18 -23 18 -55z m577 -62 c-3 -56 -6 -65 -23 -65 -25 0
-25 5 16 118 8 23 10 12 7 -53z m-1438 9 l33 -37 97 8 c93 7 99 6 134 -18 21
-13 56 -34 79 -46 54 -27 112 -78 124 -108 12 -32 34 -29 105 18 35 22 71 39
81 37 30 -7 -53 -84 -107 -98 -50 -14 -121 -3 -280 45 -79 24 -95 25 -235 21
-82 -3 -161 -8 -175 -12 -23 -7 -24 -6 -11 10 13 15 6 25 -69 101 -78 78 -82
84 -59 89 88 19 122 24 182 25 66 1 69 0 101 -35z m-3449 -206 c73 -35 101
-43 150 -44 109 -2 260 -96 305 -190 12 -24 28 -44 35 -44 15 0 45 43 45 64 0
31 116 37 749 36 l546 0 122 -41 c115 -38 122 -42 112 -61 -22 -41 5 -44 103
-11 117 39 200 57 407 88 163 24 165 24 196 5 48 -30 161 -84 260 -125 245
-101 359 -185 414 -307 16 -34 33 -74 37 -88 6 -23 4 -22 -35 13 -87 78 -103
82 -396 83 -255 1 -262 2 -350 29 -88 28 -97 28 -383 32 -258 4 -296 3 -311
-11 -28 -25 -103 -36 -296 -43 -272 -9 -468 19 -727 104 -136 44 -137 45 -149
81 -15 47 -27 62 -49 62 -21 0 -30 -19 -30 -67 l0 -36 -87 7 c-49 3 -116 9
-149 12 -47 5 -70 2 -98 -11 -35 -17 -44 -17 -219 5 -148 18 -207 21 -314 15
-72 -4 -141 -4 -153 0 -21 7 -21 7 -3 20 65 44 191 48 355 9 143 -34 270 -38
313 -10 27 18 28 19 9 33 -10 8 -44 21 -74 29 -108 29 -130 37 -146 55 -18 20
-21 50 -10 90 7 25 5 27 -36 37 -24 6 -79 15 -123 21 -44 7 -100 17 -125 23
l-45 12 40 8 c22 4 78 8 125 9 47 1 99 4 115 8 l30 6 -35 22 c-45 27 -123 53
-161 53 -16 0 -47 9 -69 20 -22 11 -58 20 -82 20 -25 0 -38 4 -32 9 33 32 111
21 219 -31z m2825 -94 c70 -33 74 -36 56 -50 -32 -23 -48 -17 -135 54 -50 40
-53 45 -26 38 17 -4 64 -23 105 -42z m-3090 -73 l25 -8 -30 -6 c-18 -4 -49 -1
-75 7 l-45 14 50 0 c28 0 61 -3 75 -7z m3254 -26 c19 -14 18 -15 -12 -15 -24
0 -30 4 -26 15 7 18 14 18 38 0z m2536 -2755 c12 -36 32 -135 46 -220 20 -130
30 -165 59 -220 94 -177 189 -370 236 -481 112 -266 214 -621 277 -960 23
-125 35 -164 55 -191 50 -65 89 -165 114 -296 56 -297 53 -288 151 -434 324
-486 506 -849 586 -1168 14 -58 33 -142 40 -186 13 -72 23 -96 85 -195 152
-248 249 -329 387 -329 27 0 68 7 92 15 52 19 232 48 263 43 19 -3 10 -14 -63
-75 -98 -82 -123 -124 -115 -188 l6 -42 -72 -11 c-154 -24 -253 -77 -318 -172
-43 -62 -115 -100 -155 -81 -41 18 -87 111 -184 367 -39 104 -59 134 -230 339
-157 189 -254 328 -300 428 -16 37 -30 69 -30 72 0 3 9 5 20 5 51 0 12 55 -95
134 -68 50 -151 132 -185 181 -78 114 -121 229 -180 482 -71 304 -125 439
-219 544 -64 72 -92 129 -141 294 -51 170 -77 223 -142 288 l-51 51 11 120
c47 495 50 1411 6 1936 -5 61 -4 64 10 40 9 -14 25 -54 36 -90z m-1935 -599
c11 -107 19 -340 25 -667 4 -277 11 -508 15 -514 15 -24 -73 -209 -165 -350
-74 -112 -151 -211 -353 -449 -190 -225 -280 -342 -356 -465 -73 -119 -143
-283 -166 -388 -19 -86 -71 -174 -117 -196 -17 -8 -41 -40 -66 -86 -22 -40
-90 -152 -152 -247 -184 -285 -260 -467 -260 -621 0 -54 -2 -59 -30 -73 -47
-24 -60 -61 -60 -170 0 -52 -3 -95 -7 -95 -4 0 -17 9 -29 21 -32 30 -92 41
-171 29 -58 -8 -72 -14 -93 -40 -30 -37 -40 -38 -40 -4 0 29 49 84 76 84 10 0
26 7 35 16 14 13 16 21 8 36 -9 17 -17 19 -53 14 -32 -5 -46 -3 -56 9 -10 12
-24 14 -64 9 -45 -6 -50 -5 -38 8 7 9 32 23 57 32 36 14 56 33 105 98 34 45
81 120 104 167 87 173 123 302 196 691 118 636 169 745 584 1241 136 161 254
326 300 418 17 32 40 57 75 79 59 39 104 100 131 177 19 54 26 96 55 321 12
92 22 129 58 210 25 55 66 155 92 223 147 390 213 533 299 647 29 39 32 40 38
20 4 -11 14 -95 23 -185z m962 -1566 c26 -158 25 -707 0 -915 -23 -185 -50
-340 -89 -510 -38 -169 -50 -428 -25 -545 21 -96 52 -175 89 -226 31 -42 32
-48 34 -149 2 -122 24 -233 94 -481 56 -198 77 -289 90 -398 9 -64 7 -79 -9
-115 -10 -22 -26 -50 -34 -61 -15 -19 -16 -19 -35 -2 -35 32 -81 132 -132 288
-28 85 -66 181 -85 214 -68 116 -67 113 -75 350 -8 220 -12 248 -45 317 -18
36 -17 38 6 110 20 61 24 92 23 193 0 106 -5 140 -43 293 -68 279 -71 375 -17
547 48 155 68 251 73 355 l5 105 38 40 39 40 4 335 c4 281 7 346 22 405 l19
70 18 -75 c9 -41 25 -124 35 -185z m-5096 -1095 c98 -137 238 -315 363 -460
125 -145 436 -460 586 -593 872 -771 1907 -1281 3044 -1502 l121 -23 -2117 -1
-2118 -1 1 1373 c0 1348 0 1372 19 1347 10 -14 56 -77 101 -140z m10519 -1210
l0 -1370 -2117 1 -2118 1 95 19 c75 16 116 18 192 13 112 -7 156 3 192 46 20
24 49 36 182 74 900 255 1726 701 2444 1320 148 127 462 438 593 586 169 191
371 448 485 618 24 34 45 62 47 62 3 0 5 -616 5 -1370z m-1942 -126 c-8 -9
-24 -14 -34 -11 -17 3 -16 5 6 15 36 16 47 14 28 -4z m0 -126 c4 -32 -14 -46
-110 -84 -66 -27 -80 -29 -85 -17 -9 22 15 39 80 57 45 13 62 24 75 46 20 35
36 34 40 -2z m-6551 -180 c-3 -7 -5 -2 -5 12 0 14 2 19 5 13 2 -7 2 -19 0 -25z
m330 -53 l36 -15 -6 -51 c-4 -29 -8 -54 -11 -56 -8 -9 -156 72 -156 86 0 47
68 65 137 36z m3023 -850 l55 -30 -74 -3 c-40 -2 -75 -1 -78 1 -5 6 30 68 37
64 3 -1 30 -16 60 -32z m512 5 c-38 -9 -232 -22 -217 -15 15 7 153 22 205 23
43 0 44 0 12 -8z m-997 -20 c14 -6 -4 -9 -55 -9 -52 -1 -70 2 -60 9 18 12 88
12 115 0z"/>
<path d="M8530 9020 c-8 -5 -95 -47 -194 -92 -159 -73 -199 -98 -184 -113 17
-18 279 97 347 152 25 20 48 38 50 39 1 2 1 7 0 13 -3 7 -9 7 -19 1z"/>
<path d="M6185 10086 l-30 -12 34 -7 c18 -4 57 -7 85 -8 60 -1 113 -17 59 -18
-29 -1 -52 -16 -40 -27 8 -8 142 -8 156 0 9 6 7 12 -9 23 -16 11 -19 18 -11
26 6 6 11 17 11 24 0 18 -213 17 -255 -1z"/>
<path d="M6448 9944 c-42 -13 -48 -18 -48 -42 0 -27 33 -91 54 -104 6 -4 34
-8 61 -8 60 0 132 36 127 63 -2 10 6 31 18 47 l21 29 -30 16 c-38 19 -139 19
-203 -1z"/>
<path d="M6013 9935 c-34 -15 -44 -35 -18 -35 9 0 32 -7 53 -16 l37 -16 -33
-16 c-18 -9 -31 -21 -29 -26 2 -6 23 -21 48 -33 48 -24 81 -23 113 5 23 21 99
122 94 127 -7 6 -149 25 -190 25 -24 -1 -58 -7 -75 -15z"/>
<path d="M6217 9721 c-34 -62 -35 -100 -1 -132 21 -20 35 -24 83 -23 88 2 111
10 111 40 0 22 -2 24 -21 13 -17 -8 -35 -7 -85 7 l-64 19 6 62 c4 35 5 63 2
63 -3 0 -17 -22 -31 -49z"/>
<path d="M5686 8554 c-10 -25 -43 -70 -72 -100 -58 -60 -52 -69 19 -25 64 41
103 104 98 159 -2 27 -27 9 -45 -34z"/>
<path d="M6268 8575 c-4 -4 2 -25 13 -48 10 -23 19 -59 19 -79 0 -34 3 -38 25
-38 23 0 25 4 24 43 -1 67 -55 148 -81 122z"/>
<path d="M6863 7944 c-44 -22 -42 -34 6 -34 44 0 75 25 50 41 -18 11 -18 11
-56 -7z"/>
<path d="M5722 7898 c3 -7 23 -14 47 -16 32 -2 42 0 39 10 -3 7 -23 14 -47 16
-32 2 -42 0 -39 -10z"/>
<path d="M6520 7651 c-20 -6 -12 -10 50 -29 81 -24 100 -26 100 -14 0 23 -109
55 -150 43z"/>
<path d="M6174 7619 c-17 -5 -38 -16 -45 -26 -13 -15 -11 -16 11 -10 14 3 55
9 93 12 75 8 86 19 30 29 -45 7 -49 7 -89 -5z"/>
<path d="M6360 6991 c-15 -29 -13 -33 18 -29 19 2 28 9 30 26 4 28 -33 31 -48
3z"/>
<path d="M6800 6890 c0 -47 15 -52 51 -14 24 25 24 26 5 40 -37 27 -56 18 -56
-26z"/>
<path d="M6453 6908 c-5 -7 -14 -30 -20 -50 -10 -35 -10 -36 10 -29 29 11 61
56 54 75 -8 19 -31 21 -44 4z"/>
<path d="M5953 6865 c14 -41 20 -42 55 -15 26 21 26 22 8 36 -11 8 -32 14 -47
14 -27 0 -28 -1 -16 -35z"/>
<path d="M6350 6846 c0 -29 22 -49 44 -40 20 8 20 14 -3 42 -25 29 -41 28 -41
-2z"/>
<path d="M6357 6423 c-4 -3 -7 -28 -7 -55 l0 -48 39 0 c38 0 50 13 51 58 0 31
-63 66 -83 45z"/>
<path d="M6883 6033 c-49 -82 -55 -116 -14 -79 30 27 73 114 69 142 -3 21 -11
12 -55 -63z"/>
<path d="M5804 6064 c-6 -33 -2 -49 32 -113 40 -75 65 -101 96 -101 24 0 23 3
-20 68 -21 31 -49 82 -61 112 -31 74 -38 79 -47 34z"/>
<path d="M6163 5410 c-1 -15 4 -20 23 -20 17 0 24 5 24 20 0 14 -7 20 -23 20
-16 0 -23 -6 -24 -20z"/>
<path d="M6350 5126 c0 -40 14 -54 28 -29 7 11 6 25 -1 40 -15 33 -27 28 -27
-11z"/>
<path d="M6516 3380 c-7 -46 9 -119 50 -226 19 -49 27 -91 29 -146 3 -86 26
-141 63 -146 31 -5 28 17 -8 75 -26 41 -30 56 -30 120 0 59 -9 100 -46 215
-25 79 -47 144 -48 146 -2 1 -6 -16 -10 -38z"/>
<path d="M6655 2711 c-8 -47 7 -81 36 -81 16 0 19 4 14 18 -4 9 -9 32 -12 49
-3 18 -11 37 -18 43 -10 8 -15 2 -20 -29z"/>
<path d="M6072 628 c-19 -19 -14 -48 8 -48 15 0 20 7 20 24 0 30 -12 40 -28
24z"/>
<path d="M6622 573 c-18 -33 -14 -77 12 -136 33 -76 91 -114 98 -64 2 17 9 21
29 19 35 -3 58 23 38 43 -12 13 -19 10 -48 -17 l-34 -32 -23 27 c-12 15 -27
52 -34 84 -6 32 -15 67 -19 78 -8 19 -8 19 -19 -2z"/>
<path d="M5913 518 c-20 -26 -23 -48 -7 -48 18 0 55 41 47 52 -7 12 -29 9 -40
-4z"/>
<path d="M3836 8533 c-14 -14 -5 -32 22 -41 15 -6 59 -22 97 -36 141 -52 348
-88 575 -101 98 -5 103 -4 68 9 -46 18 -150 38 -367 71 -162 24 -301 59 -362
91 -15 7 -29 10 -33 7z"/>
<path d="M7610 3610 c0 -13 7 -20 20 -20 23 0 26 10 8 28 -18 18 -28 15 -28
-8z"/>
<path d="M7935 3160 c37 -27 71 -50 76 -50 4 0 16 -3 26 -6 25 -9 -55 74 -89
92 -15 8 -39 14 -54 14 -24 0 -19 -6 41 -50z"/>
<path d="M8951 1171 c6 -16 19 -37 30 -47 17 -16 22 -16 29 -4 19 29 10 50
-26 65 -46 19 -45 20 -33 -14z"/>
</g>
</svg>
