<?xml version="1.0" standalone="no"?>
<!DOCTYPE svg PUBLIC "-//W3C//DTD SVG 20010904//EN"
 "http://www.w3.org/TR/2001/REC-SVG-20010904/DTD/svg10.dtd">
<svg version="1.0" xmlns="http://www.w3.org/2000/svg"
 width="640.000000pt" height="1280.000000pt" viewBox="0 0 640.000000 1280.000000"
 preserveAspectRatio="xMidYMid meet">
<metadata>
Created by potrace 1.15, written by Peter Selinger 2001-2017
</metadata>
<g transform="translate(0.000000,1280.000000) scale(0.100000,-0.100000)"
fill="#000000" stroke="none">
<path d="M2855 12790 c-253 -40 -479 -153 -636 -317 -125 -131 -169 -208 -284
-498 -208 -523 -307 -846 -325 -1060 -9 -116 -25 -175 -137 -530 -33 -104 -68
-233 -77 -285 -31 -166 -45 -211 -92 -281 -58 -88 -81 -142 -145 -340 -50
-155 -53 -170 -53 -269 l-1 -105 87 -263 c48 -145 106 -304 129 -353 38 -84
41 -95 34 -147 -20 -167 -165 -484 -329 -717 -130 -186 -479 -766 -563 -935
-73 -149 -117 -276 -144 -411 -33 -172 -20 -263 49 -337 59 -65 1250 -882
1524 -1047 193 -115 247 -157 282 -218 23 -42 23 -43 16 -252 -9 -231 -16
-264 -75 -371 -34 -61 -38 -76 -47 -183 -5 -64 -7 -129 -4 -144 11 -56 -15
-222 -88 -564 -80 -374 -87 -416 -111 -652 -17 -164 -33 -256 -266 -1539 -82
-453 -149 -847 -149 -876 0 -97 -45 -91 625 -94 l583 -3 84 133 c120 190 118
186 226 400 133 264 219 391 381 561 72 76 146 160 164 187 34 50 34 50 52 30
11 -12 47 -34 80 -50 67 -32 126 -89 169 -163 16 -26 63 -134 106 -240 119
-297 214 -479 374 -720 l91 -138 737 3 c405 2 739 6 743 9 9 9 -3 55 -137 524
-141 497 -258 889 -292 977 -13 35 -54 131 -91 213 -168 374 -181 423 -260
970 -25 176 -64 415 -86 530 -81 427 -51 510 243 660 303 154 501 321 701 590
70 93 99 152 129 261 19 71 22 104 22 329 1 199 -3 267 -17 335 -47 235 -139
426 -292 610 -95 114 -586 574 -780 731 -60 48 -120 103 -132 121 -32 47 -79
388 -92 658 -14 287 -48 408 -167 587 -79 120 -181 218 -359 348 -176 127
-252 187 -395 310 -192 165 -469 454 -549 574 -32 48 -36 62 -35 115 0 67 25
125 111 259 25 40 56 95 69 123 53 119 117 145 287 115 142 -25 191 -14 242
53 35 46 84 163 85 201 0 20 13 46 40 78 46 56 57 99 41 162 -17 67 -14 123
10 161 20 33 30 38 121 58 37 8 68 44 68 78 0 15 -21 78 -46 140 -86 214 -87
215 -81 308 3 58 13 109 32 160 l27 75 -2 383 c-2 452 -3 456 -83 527 -70 62
-214 158 -307 205 -188 95 -478 203 -630 236 -89 19 -320 27 -405 14z m-570
-6042 c116 -188 236 -384 267 -435 l58 -93 -38 0 c-36 0 -43 7 -209 198 -295
339 -403 479 -403 525 0 25 91 148 109 147 3 -1 101 -154 216 -342z m-699
-424 c67 -50 226 -167 355 -260 336 -241 426 -310 495 -380 113 -114 122 -200
38 -375 -26 -55 -53 -104 -60 -110 -22 -18 -536 395 -748 601 -187 182 -336
369 -336 422 1 53 100 215 123 201 7 -3 66 -48 133 -99z"/>
</g>
</svg>
