<?xml version="1.0" standalone="no"?>
<!DOCTYPE svg PUBLIC "-//W3C//DTD SVG 20010904//EN"
 "http://www.w3.org/TR/2001/REC-SVG-20010904/DTD/svg10.dtd">
<svg version="1.0" xmlns="http://www.w3.org/2000/svg"
 width="1280.000000pt" height="652.000000pt" viewBox="0 0 1280.000000 652.000000"
 preserveAspectRatio="xMidYMid meet">
<metadata>
Created by potrace 1.15, written by Peter Selinger 2001-2017
</metadata>
<g transform="translate(0.000000,652.000000) scale(0.100000,-0.100000)"
fill="#000000" stroke="none">
<path d="M4620 6513 c-58 -1 -204 -7 -325 -13 -1081 -53 -1720 -241 -1882
-553 -12 -24 -12 -29 -2 -25 86 33 331 106 459 138 535 132 1128 190 1936 190
500 0 780 -11 1784 -71 749 -44 1052 -43 1870 5 1034 62 1439 60 1627 -8 56
-20 111 -58 134 -93 59 -88 -26 -193 -156 -193 -59 0 -117 24 -169 71 l-38 33
55 -110 c67 -134 190 -405 185 -408 -2 -2 -97 -16 -213 -31 -559 -73 -852
-137 -935 -206 -14 -11 -19 -18 -12 -14 6 3 238 10 515 15 525 10 618 17 713
59 39 18 47 29 122 172 214 408 315 707 269 796 -44 84 -242 136 -627 164
-225 16 -906 14 -1465 -5 -627 -22 -686 -21 -1360 19 -1158 67 -1789 85 -2485
68z"/>
<path d="M1150 5969 c-426 -10 -845 -22 -930 -26 l-155 -7 195 -7 c183 -7 882
-36 1463 -60 250 -10 258 -10 290 10 17 11 45 33 60 49 23 24 25 31 14 40 -25
21 -145 21 -937 1z"/>
<path d="M3266 5807 c-271 -193 -345 -227 -499 -227 -107 0 -276 38 -421 96
-17 7 -17 6 -1 -27 42 -82 130 -181 349 -393 l235 -227 59 44 c246 181 640
284 1252 328 200 14 897 14 1300 0 162 -6 383 -11 490 -11 192 0 194 1 160 18
l-35 17 143 9 c79 4 145 6 148 4 10 -11 23 -220 24 -373 0 -233 -35 -352 -121
-414 -55 -41 -115 -51 -292 -51 -333 0 -571 -41 -551 -94 20 -51 230 -116 584
-180 74 -13 132 -25 128 -25 -59 -8 -275 -60 -355 -86 -196 -65 -333 -155
-333 -221 0 -59 99 -108 280 -139 47 -8 108 -15 135 -16 39 0 45 -2 28 -9 -36
-15 -325 -16 -583 -2 -344 18 -717 0 -1295 -63 -377 -41 -506 -49 -592 -36
-80 12 -113 30 -113 63 0 27 80 108 163 166 192 132 418 210 792 271 l60 10
-75 -4 c-402 -26 -786 -24 -926 4 -122 24 -174 64 -174 132 0 103 181 201 500
273 405 90 1196 168 1968 192 116 4 212 10 212 15 0 12 -324 23 -650 22 -173
-1 -511 -11 -750 -23 -610 -28 -1050 -36 -1298 -21 -112 7 -206 10 -208 8 -3
-3 9 -50 25 -105 91 -308 145 -634 221 -1342 78 -730 129 -1020 234 -1344 43
-131 132 -336 146 -336 51 0 285 24 350 36 85 15 193 53 240 83 23 15 16 16
-130 22 -169 7 -224 21 -260 67 -85 108 100 310 392 428 43 17 82 35 86 39 4
4 -85 5 -198 2 -157 -4 -227 -10 -300 -26 -52 -12 -107 -24 -122 -27 -26 -6
-28 -4 -28 23 0 120 89 226 263 312 138 69 298 119 572 181 127 28 239 55 250
60 35 15 -287 11 -408 -5 -143 -19 -256 -42 -520 -106 -115 -28 -212 -48 -215
-44 -4 3 -6 32 -6 63 0 111 70 191 239 273 135 65 276 106 641 184 170 37 311
68 312 70 2 2 -17 7 -43 11 -62 9 -292 -11 -485 -43 -85 -14 -203 -28 -262
-30 -235 -11 -543 44 -543 97 0 28 108 69 340 130 515 135 964 222 1345 261
106 10 520 28 529 23 2 -2 -12 -9 -30 -17 -54 -22 -100 -67 -125 -122 -33 -70
-32 -85 9 -85 19 0 188 11 378 24 189 14 390 27 447 31 l102 6 0 -60 c0 -33
-5 -151 -11 -262 -27 -510 57 -780 276 -884 84 -40 233 -47 353 -17 155 40
337 142 416 233 78 92 83 200 26 544 -26 152 -31 211 -28 296 3 95 6 110 31
147 15 23 41 49 58 58 49 25 167 28 364 9 99 -9 200 -14 225 -10 119 16 288
92 354 159 83 82 92 159 72 595 l-9 194 -546 -4 -546 -4 0 55 c0 30 4 247 9
482 l8 427 -33 5 c-71 12 -458 66 -549 76 -207 24 -379 16 -438 -20 -32 -20
-32 -20 -32 -105 l0 -85 -32 0 c-18 1 -80 5 -138 10 -394 36 -964 33 -1900
-11 -239 -11 -612 -23 -829 -26 -337 -5 -393 -4 -386 8 5 8 25 37 45 64 20 28
74 110 120 184 46 74 99 154 117 178 29 38 36 73 14 73 -4 0 -92 -60 -195
-133z"/>
<path d="M1600 5784 c-266 -23 -449 -42 -750 -81 -195 -24 -402 -50 -460 -57
-94 -11 -32 -13 605 -19 623 -5 858 -12 1050 -32 46 -4 53 -2 90 30 l40 34
-31 43 c-46 67 -97 80 -319 83 -99 2 -200 1 -225 -1z"/>
<path d="M11308 5636 c-123 -42 -221 -100 -310 -184 -141 -133 -161 -247 -61
-353 25 -27 50 -49 54 -49 5 0 9 26 9 58 1 31 9 98 19 147 l17 90 7 -65 c4
-36 10 -133 13 -217 4 -84 10 -150 14 -148 14 8 39 137 51 255 19 194 59 285
154 350 l46 32 -8 -64 c-4 -34 -8 -139 -8 -233 1 -147 4 -181 24 -252 l23 -82
41 26 c23 14 55 37 71 52 l29 26 -5 -27 c-10 -55 10 -56 58 -3 131 143 132
293 4 486 -32 49 -140 189 -144 189 -1 0 -45 -15 -98 -34z"/>
<path d="M1570 5184 c-161 -15 -637 -70 -715 -83 -44 -8 -37 -9 55 -10 1131
-19 1219 -22 1398 -46 39 -6 42 -5 42 18 0 58 -82 109 -207 127 -94 13 -398
10 -573 -6z"/>
<path d="M9749 5035 c-266 -38 -651 -161 -756 -241 -19 -14 -33 -28 -31 -29 2
-2 34 5 72 16 124 34 276 50 546 58 246 8 272 10 355 35 147 44 210 83 189
117 -29 48 -206 69 -375 44z"/>
<path d="M10790 4770 c-313 -27 -570 -76 -1175 -224 -236 -57 -475 -114 -530
-125 -165 -35 -158 -31 -95 -52 115 -41 250 -62 385 -62 168 0 268 19 486 95
425 146 490 167 586 187 56 11 148 26 205 32 126 14 418 6 543 -15 567 -95
891 -449 1049 -1146 63 -274 70 -345 71 -650 0 -224 -4 -309 -18 -395 -88
-556 -301 -814 -656 -792 -163 9 -250 60 -436 255 -228 239 -340 346 -396 380
-76 45 -159 72 -238 78 l-66 5 78 -42 c141 -76 276 -224 353 -387 148 -316
174 -362 235 -423 l61 -61 71 6 c40 3 158 8 262 11 105 3 264 10 355 16 153
10 171 13 240 43 168 74 475 163 526 153 20 -4 29 4 53 47 65 115 77 236 31
327 -35 70 -82 121 -210 229 -122 104 -176 169 -184 224 -3 17 -7 155 -10 306
-9 522 -52 730 -243 1184 -111 263 -144 375 -147 491 l-2 89 -90 42 c-164 77
-343 129 -544 159 -130 19 -411 27 -550 15z"/>
<path d="M1331 4686 c2 -3 126 -11 274 -20 547 -32 723 -47 895 -75 30 -5 60
-6 65 -1 6 4 22 10 38 14 20 5 27 12 27 30 0 60 48 56 -658 56 -355 0 -643 -2
-641 -4z"/>
<path d="M10504 4370 c-127 -16 -243 -73 -304 -150 -41 -51 -74 -128 -96 -225
-17 -73 -19 -126 -19 -580 0 -456 2 -506 18 -565 61 -212 154 -290 437 -365
236 -63 362 -107 477 -166 124 -63 132 -57 39 29 -86 78 -224 151 -526 277
-194 81 -321 168 -332 228 -7 37 7 119 28 164 10 21 43 63 74 94 135 136 416
209 755 196 232 -9 420 -49 559 -119 l59 -30 66 21 c36 11 99 25 138 31 40 7
76 16 79 21 3 6 -10 42 -28 82 -26 54 -34 81 -30 110 6 54 -29 141 -105 255
-68 104 -94 174 -114 305 -19 127 14 244 87 314 l34 31 -28 6 c-15 3 -92 13
-172 22 -167 19 -975 29 -1096 14z"/>
<path d="M1720 4340 c-135 -3 -231 -7 -215 -8 17 -1 174 -9 350 -17 353 -17
614 -38 743 -61 79 -14 86 -13 116 4 24 14 32 26 34 55 l3 37 -393 -2 c-216
-1 -503 -5 -638 -8z"/>
<path d="M5227 4299 c-319 -20 -378 -29 -162 -23 83 2 308 6 500 9 193 3 391
9 440 12 83 7 86 8 45 14 -82 13 -541 7 -823 -12z"/>
<path d="M9630 4124 c-314 -47 -367 -56 -442 -75 -83 -21 -151 -48 -183 -73
-18 -14 -10 -15 100 -10 66 4 170 1 231 -4 104 -10 313 -48 323 -58 7 -7 -69
-82 -114 -114 -60 -41 -150 -76 -324 -126 -167 -48 -286 -90 -300 -108 -7 -8
27 -11 117 -11 70 0 195 -4 278 -9 l152 -9 -10 -36 c-43 -156 -156 -257 -383
-340 -12 -5 13 -10 65 -14 233 -17 283 -106 138 -248 -45 -44 -174 -133 -208
-144 -39 -12 -19 -25 40 -25 111 0 200 -32 200 -72 0 -21 -94 -102 -158 -136
-62 -33 -88 -62 -63 -70 28 -9 75 -59 93 -98 30 -70 39 -138 48 -384 5 -129
12 -248 16 -263 l7 -28 24 23 c48 44 152 185 291 396 l140 213 -56 -32 c-32
-17 -80 -45 -109 -61 l-51 -29 -6 28 c-13 72 -16 230 -6 353 19 242 49 399
165 860 68 274 118 496 135 600 6 36 13 80 16 98 3 17 1 31 -3 31 -4 -1 -78
-12 -163 -25z"/>
<path d="M1580 3841 c14 -5 102 -11 195 -15 391 -15 699 -40 872 -70 69 -12
79 -11 114 6 39 18 47 36 33 72 -6 14 -69 16 -623 15 -339 0 -605 -4 -591 -8z"/>
<path d="M11976 3231 c-6 -10 10 -61 19 -61 3 0 5 16 5 35 0 33 -12 46 -24 26z"/>
<path d="M12001 2830 c0 -377 -13 -493 -67 -601 -13 -26 -37 -58 -54 -73 l-32
-26 -198 0 c-110 0 -222 -5 -251 -11 -65 -14 -108 -52 -111 -98 l-3 -35 50 2
c28 2 102 9 165 18 369 48 588 178 651 386 18 59 21 87 16 186 -6 151 -51 313
-141 512 l-25 55 0 -315z"/>
<path d="M12502 3075 c-42 -226 -33 -486 22 -616 l13 -32 17 74 c38 170 48
253 44 379 -5 130 -25 206 -67 244 -16 15 -18 12 -29 -49z"/>
<path d="M10433 3076 c-45 -21 -52 -55 -20 -108 40 -69 58 -81 104 -69 61 17
353 125 353 132 0 3 -42 16 -92 29 -119 29 -298 37 -345 16z"/>
<path d="M5333 2869 c-120 -18 -328 -105 -498 -209 -264 -162 -439 -365 -440
-509 0 -52 27 -132 44 -131 3 1 29 33 56 72 28 39 109 132 180 206 181 188
347 322 596 482 65 41 126 80 136 87 22 14 15 14 -74 2z"/>
<path d="M1845 2772 c2 -2 95 -10 207 -17 484 -34 644 -47 820 -66 172 -19
189 -19 217 -4 31 15 40 45 23 72 -5 8 -174 12 -639 15 -347 1 -630 2 -628 0z"/>
<path d="M6415 2460 c0 -55 1 -100 3 -100 13 0 139 34 144 39 4 4 -27 41 -70
84 l-77 77 0 -100z"/>
<path d="M5555 2534 c-197 -43 -395 -168 -689 -433 -146 -132 -231 -225 -393
-429 -63 -81 -139 -171 -167 -201 -48 -50 -160 -141 -175 -141 -3 0 -6 57 -6
127 l0 128 -45 2 c-25 2 -121 10 -215 18 -263 23 -265 24 -351 15 -106 -11
-174 -40 -227 -100 -42 -47 -77 -129 -77 -182 0 -26 0 -26 113 -33 61 -3 259
-3 440 2 180 4 327 5 327 2 0 -10 -115 -54 -203 -78 -43 -12 -134 -29 -202
-38 -71 -10 -119 -21 -112 -25 59 -38 292 -78 467 -79 l125 0 -90 -36 c-49
-19 -120 -43 -157 -52 l-67 -17 67 -29 c37 -16 100 -45 141 -64 74 -34 74 -35
45 -44 -16 -6 -49 -24 -74 -41 -24 -17 -48 -34 -53 -37 -5 -4 13 -35 41 -70
28 -34 92 -139 143 -231 50 -93 111 -195 135 -228 115 -152 265 -225 459 -223
177 1 361 54 511 145 131 79 272 238 380 429 60 106 187 380 179 387 -9 9
-119 -65 -302 -202 -327 -244 -436 -312 -568 -359 -85 -29 -150 -43 -121 -24
114 73 156 106 247 197 131 129 347 390 441 529 161 240 288 581 288 772 0
138 -66 252 -165 287 -29 10 -29 10 15 11 150 3 337 -106 374 -217 29 -84 16
-162 -55 -331 -63 -148 -126 -322 -135 -365 l-7 -39 58 7 c142 16 283 127 355
278 61 128 75 192 75 348 0 157 -14 223 -75 346 -100 205 -282 320 -520 330
-72 2 -127 -1 -175 -12z"/>
<path d="M2215 2470 c-815 -5 -891 -10 -470 -30 389 -19 925 -50 1092 -64 143
-11 169 -11 213 3 53 16 59 27 40 75 -7 19 -16 25 -32 24 -13 -2 -392 -5 -843
-8z"/>
<path d="M6500 2245 c-14 -38 -42 -373 -35 -419 14 -85 70 -137 183 -170 49
-14 61 -14 160 4 313 57 681 70 1442 51 267 -7 564 -11 660 -9 l175 3 -66 33
c-83 41 -255 85 -424 108 -154 21 -611 23 -947 5 -309 -17 -613 -15 -665 3
-95 33 -206 128 -319 271 -65 83 -126 145 -141 145 -8 0 -18 -11 -23 -25z"/>
<path d="M10141 2169 c-141 -28 -256 -91 -358 -196 -76 -78 -121 -142 -242
-343 -144 -239 -214 -326 -315 -392 -69 -45 -169 -78 -234 -78 -25 0 -43 -2
-41 -4 8 -8 305 -56 343 -56 21 0 35 -3 32 -7 -2 -5 -47 -30 -100 -58 -53 -27
-96 -55 -96 -61 0 -14 34 -21 142 -30 89 -8 97 -4 187 80 32 30 51 43 46 31
-4 -11 -15 -49 -25 -85 -9 -35 -24 -68 -31 -72 -8 -4 -70 -24 -139 -44 -69
-20 -147 -47 -175 -59 -42 -19 -47 -24 -30 -30 160 -56 212 -118 314 -381 95
-245 182 -337 352 -374 49 -11 65 -10 144 10 282 71 712 310 817 454 35 49 37
90 4 111 -68 45 -294 41 -462 -8 l-81 -24 75 111 c147 217 259 489 269 653 5
86 4 96 -21 147 -45 92 -135 150 -353 231 -57 21 -103 41 -103 45 0 4 33 22
73 41 65 30 81 34 162 34 142 0 303 -61 356 -135 12 -17 22 -59 29 -124 7 -64
18 -115 34 -147 19 -41 22 -59 18 -126 -9 -152 26 -352 63 -367 43 -16 141
157 175 309 105 479 -252 959 -710 954 -41 -1 -95 -5 -119 -10z"/>
<path d="M7320 1608 c-414 -34 -685 -136 -751 -282 -19 -41 -26 -121 -11 -129
7 -5 144 -1 937 23 832 26 1351 69 1551 131 66 20 88 38 82 65 -14 71 -443
155 -993 194 -167 12 -667 11 -815 -2z"/>
<path d="M1505 1399 c66 -4 230 -12 365 -18 514 -24 866 -47 1055 -70 41 -5
68 -3 85 6 14 7 35 13 48 13 23 0 27 15 16 58 l-6 22 -842 -1 c-496 -1 -792
-5 -721 -10z"/>
<path d="M5939 910 c-49 -26 -87 -73 -94 -118 -17 -107 -20 -103 35 -42 54 61
103 143 98 164 -2 12 -10 11 -39 -4z"/>
<path d="M8555 916 c-35 -15 -80 -65 -103 -114 -13 -26 -21 -32 -37 -27 -11 3
-56 9 -101 12 -64 4 -88 2 -116 -11 -69 -33 -82 -104 -43 -221 l17 -47 -35
-37 c-114 -117 -114 -269 0 -341 26 -17 66 -36 88 -42 48 -14 485 -12 680 3
116 9 315 41 337 55 5 3 -8 24 -27 46 -20 22 -75 99 -122 171 -209 320 -254
386 -312 449 -58 63 -143 119 -180 118 -9 -1 -30 -7 -46 -14z"/>
<path d="M3525 860 c-32 -50 -48 -51 -181 -9 -223 70 -296 29 -296 -167 l0
-81 -65 -11 c-127 -21 -192 -86 -179 -181 9 -66 57 -158 118 -225 l53 -59 65
16 c146 36 204 40 620 42 228 0 423 5 432 9 16 7 16 11 -6 39 -13 18 -61 95
-106 172 -266 450 -384 568 -455 455z"/>
<path d="M10706 858 c-3 -13 -6 -33 -6 -44 0 -22 0 -22 57 -5 31 9 58 21 60
27 4 12 -59 44 -86 44 -11 0 -21 -9 -25 -22z"/>
</g>
</svg>
