<svg version="1.2" xmlns="http://www.w3.org/2000/svg" viewBox="0 0 70 70" width="70" height="70">
	<title>scroll-svg</title>
	<style>
		.s0 { fill: #000000 } 
	</style>
	<g id="Layer">
		<g id="Layer">
			<g id="Layer">
				<path id="Layer" class="s0" d="m34.9 7.2l18.4 18.3-3.5 3.6-12.4-12.4v43.5h-4.9v-43.5l-12.4 12.4-3.5-3.6z"/>
			</g>
			<g id="Layer">
				<path id="Layer" fill-rule="evenodd" class="s0" d="m34.9 69.9c-19.3 0-34.9-15.6-34.9-35 0-19.3 15.6-34.9 34.9-34.9 19.4 0 35 15.6 35 34.9 0 19.4-15.6 35-35 35zm30.3-35c0-16.7-13.5-30.2-30.3-30.2-16.7 0-30.2 13.5-30.2 30.2 0 16.8 13.5 30.3 30.2 30.3 16.8 0 30.3-13.5 30.3-30.3z"/>
			</g>
		</g>
	</g>
	<g id="Layer">
	</g>
	<g id="Layer">
	</g>
	<g id="Layer">
	</g>
	<g id="Layer">
	</g>
	<g id="Layer">
	</g>
	<g id="Layer">
	</g>
	<g id="Layer">
	</g>
	<g id="Layer">
	</g>
	<g id="Layer">
	</g>
	<g id="Layer">
	</g>
	<g id="Layer">
	</g>
	<g id="Layer">
	</g>
	<g id="Layer">
	</g>
	<g id="Layer">
	</g>
	<g id="Layer">
	</g>
</svg>